<?xml version="1.0" encoding="UTF-8" standalone="no"?>
<!-- Created with Inkscape (http://www.inkscape.org/) -->

<svg
   width="1125"
   height="2436"
   viewBox="0 0 1125 2436"
   version="1.1"
   id="svg1"
   xml:space="preserve"
   inkscape:version="1.4 (e7c3feb100, 2024-10-09)"
   sodipodi:docname="home.svg"
   xmlns:inkscape="http://www.inkscape.org/namespaces/inkscape"
   xmlns:sodipodi="http://sodipodi.sourceforge.net/DTD/sodipodi-0.dtd"
   xmlns="http://www.w3.org/2000/svg"
   xmlns:svg="http://www.w3.org/2000/svg"><sodipodi:namedview
     id="namedview1"
     pagecolor="#505050"
     bordercolor="#eeeeee"
     borderopacity="1"
     inkscape:showpageshadow="0"
     inkscape:pageopacity="0"
     inkscape:pagecheckerboard="0"
     inkscape:deskcolor="#505050"
     inkscape:document-units="px"
     inkscape:zoom="0.58624547"
     inkscape:cx="563.75702"
     inkscape:cy="545.84644"
     inkscape:window-width="1366"
     inkscape:window-height="731"
     inkscape:window-x="0"
     inkscape:window-y="0"
     inkscape:window-maximized="1"
     inkscape:current-layer="layer3"
     showguides="false" /><defs
     id="defs1"><inkscape:path-effect
       effect="fillet_chamfer"
       id="path-effect3"
       is_visible="true"
       lpeversion="1"
       nodesatellites_param="F,0,0,1,0,0,0,1 @ F,0,0,1,0,0.8373166,0,1 @ F,0,0,1,0,0,0,1 @ F,0,0,1,0,0,0,1"
       radius="0"
       unit="px"
       method="auto"
       mode="F"
       chamfer_steps="1"
       flexible="false"
       use_knot_distance="true"
       apply_no_radius="true"
       apply_with_radius="true"
       only_selected="false"
       hide_knots="false" /><filter
       style="color-interpolation-filters:sRGB"
       inkscape:label="Drop Shadow"
       id="filter38"
       x="-0.013283673"
       y="-0.10880595"
       width="1.0262582"
       height="1.2176119"><feFlood
         result="flood"
         in="SourceGraphic"
         flood-opacity="0.29233513089174723"
         flood-color="rgb(0,0,0)"
         id="feFlood37" /><feGaussianBlur
         result="blur"
         in="SourceGraphic"
         stdDeviation="5.5734058"
         id="feGaussianBlur37" /><feOffset
         result="offset"
         in="blur"
         dx="-0.318693"
         dy="0.000000"
         id="feOffset37" /><feComposite
         result="comp1"
         operator="in"
         in="flood"
         in2="offset"
         id="feComposite37" /><feComposite
         result="comp2"
         operator="over"
         in="SourceGraphic"
         in2="comp1"
         id="feComposite38" /></filter><filter
       style="color-interpolation-filters:sRGB"
       inkscape:label="Drop Shadow"
       id="filter27"
       x="-0.0099359917"
       y="-0.057915123"
       width="1.0195629"
       height="1.1158302"><feFlood
         result="flood"
         in="SourceGraphic"
         flood-opacity="0.18585795197039021"
         flood-color="rgb(0,0,0)"
         id="feFlood26" /><feGaussianBlur
         result="blur"
         in="SourceGraphic"
         stdDeviation="4.1353606"
         id="feGaussianBlur26" /><feOffset
         result="offset"
         in="blur"
         dx="-0.318693"
         dy="0.000000"
         id="feOffset26" /><feComposite
         result="comp1"
         operator="in"
         in="flood"
         in2="offset"
         id="feComposite26" /><feComposite
         result="comp2"
         operator="over"
         in="SourceGraphic"
         in2="comp1"
         id="feComposite27" /></filter><filter
       style="color-interpolation-filters:sRGB"
       inkscape:label="Drop Shadow"
       id="filter27-7"
       x="-0.0099359917"
       y="-0.057915123"
       width="1.0195629"
       height="1.1158302"><feFlood
         result="flood"
         in="SourceGraphic"
         flood-opacity="0.18585795197039021"
         flood-color="rgb(0,0,0)"
         id="feFlood26-5" /><feGaussianBlur
         result="blur"
         in="SourceGraphic"
         stdDeviation="4.1353606"
         id="feGaussianBlur26-3" /><feOffset
         result="offset"
         in="blur"
         dx="-0.318693"
         dy="0.000000"
         id="feOffset26-5" /><feComposite
         result="comp1"
         operator="in"
         in="flood"
         in2="offset"
         id="feComposite26-6" /><feComposite
         result="comp2"
         operator="over"
         in="SourceGraphic"
         in2="comp1"
         id="feComposite27-2" /></filter></defs><g
     inkscape:groupmode="layer"
     id="layer2"
     inkscape:label="Layer 2"><rect
       style="display:inline;fill:#ffffff;fill-opacity:1;stroke-width:2"
       id="rect2"
       width="1125"
       height="2436"
       x="0"
       y="0" /></g><g
     inkscape:label="Layer 1"
     inkscape:groupmode="layer"
     id="layer1"><g
       id="g1"
       transform="matrix(0.970984,0,0,1.7924248,16.31688,-24.393619)"><rect
         style="display:inline;fill:#f9f9f9;fill-opacity:1;stroke-width:0.430108;filter:url(#filter38)"
         id="rect4"
         width="1030.9548"
         height="122.93605"
         x="47.022594"
         y="54.152542"
         ry="13.873499" /><ellipse
         style="fill:#4d4d4d;fill-opacity:1;stroke-width:2.3415"
         id="path40"
         cy="115.62057"
         cx="163.75543"
         rx="70.963013"
         ry="38.441753" /><path
         d="m 540.95395,134.392 c 4.4587,0 8.10673,-1.73276 8.10673,-3.85057 h -16.21346 c 0,2.11781 3.64802,3.85057 8.10673,3.85057 z m 24.32019,-11.55166 v -9.62636 c 0,-5.9106 -6.60699,-10.85856 -18.24014,-12.16774 v -1.309195 c 0,-1.597974 -2.71575,-2.887908 -6.08005,-2.887908 -3.3643,0 -6.08004,1.289934 -6.08004,2.887908 v 1.309195 c -11.59262,1.30918 -18.24015,6.23788 -18.24015,12.16774 v 9.62636 l -8.10672,3.85055 v 1.92527 h 64.85382 v -1.92527 z m -8.10673,1.92528 h -32.42692 v -11.55164 c 0,-4.77469 6.12059,-8.66375 16.21346,-8.66375 10.09288,0 16.21346,3.88906 16.21346,8.66375 z"
         id="path1"
         style="fill:#4a4a4a;fill-opacity:1;stroke:none;stroke-width:2.79351" /><path
         d="m 944.92816,133.98591 h 77.28244 c 3.0353,0 5.5214,-0.32719 5.5214,-2.09089 0,-1.76368 -2.4861,-2.0909 -5.5214,-2.0909 h -77.28244 c -3.0363,0 -5.52041,0.32722 -5.52041,2.0909 0,1.7637 2.48411,2.09089 5.52041,2.09089 z m 0,-12.8268 h 77.28244 c 3.0353,0 5.5214,-0.32721 5.5214,-2.09089 0,-1.7637 -2.4861,-2.0909 -5.5214,-2.0909 h -77.28244 c -3.0363,0 -5.52041,0.3272 -5.52041,2.0909 0,1.76368 2.48411,2.09089 5.52041,2.09089 z m -5.52041,-14.9177 c 0,1.7637 2.48411,2.09091 5.52041,2.09091 h 77.28244 c 3.0353,0 5.5214,-0.32721 5.5214,-2.09091 0,-1.76368 -2.4861,-2.0909 -5.5214,-2.0909 h -77.28244 c -3.0363,0 -5.52041,0.32722 -5.52041,2.0909 z"
         id="path1-1"
         style="fill:#212121;fill-opacity:1;stroke:none;stroke-width:4.20735"
         sodipodi:nodetypes="sssssssssssssssssssss" /><path
         d="m 210.84315,166.69696 h -12.68339 v -1.96163 l 5.02498,-5.07873 q 1.45107,-1.45106 2.44532,-2.57967 0.99425,-1.12861 1.50481,-2.20347 0.51056,-1.10174 0.51056,-2.39158 0,-1.58542 -0.94051,-2.39157 -0.9405,-0.83302 -2.44531,-0.83302 -1.39732,0 -2.47219,0.48369 -1.04799,0.48369 -2.14973,1.34358 l -1.26296,-1.58542 q 1.12861,-0.94051 2.57967,-1.58543 1.47794,-0.67179 3.30521,-0.67179 2.68716,0 4.24571,1.37045 1.55855,1.34358 1.55855,3.73516 0,1.50481 -0.61804,2.82151 -0.61805,1.28984 -1.71979,2.57968 -1.10173,1.28983 -2.57967,2.7409 l -4.00387,3.95013 v 0.10748 h 9.70065 z m 15.45118,-9.62003 q 0,3.09023 -0.64491,5.32057 -0.64492,2.20348 -2.04225,3.38583 -1.39732,1.18235 -3.70828,1.18235 -3.25146,0 -4.81001,-2.60655 -1.53168,-2.63342 -1.53168,-7.2822 0,-3.11711 0.61804,-5.32058 0.64492,-2.20347 2.04224,-3.35895 1.39733,-1.18235 3.68141,-1.18235 3.22459,0 4.81002,2.60655 1.58542,2.57967 1.58542,7.25533 z m -10.37243,0 q 0,3.95012 0.88676,5.91175 0.91363,1.96163 3.09023,1.96163 2.14973,0 3.06337,-1.93476 0.9405,-1.96163 0.9405,-5.93862 0,-3.92326 -0.9405,-5.88488 -0.91364,-1.96163 -3.06337,-1.96163 -2.1766,0 -3.09023,1.96163 -0.88676,1.96162 -0.88676,5.88488 z m 25.66239,9.62003 h -12.6834 v -1.96163 l 5.02499,-5.07873 q 1.45107,-1.45106 2.44532,-2.57967 0.99425,-1.12861 1.50481,-2.20347 0.51056,-1.10174 0.51056,-2.39158 0,-1.58542 -0.94051,-2.39157 -0.94051,-0.83302 -2.44531,-0.83302 -1.39733,0 -2.47219,0.48369 -1.04799,0.48369 -2.14973,1.34358 l -1.26297,-1.58542 q 1.12861,-0.94051 2.57968,-1.58543 1.47794,-0.67179 3.30521,-0.67179 2.68716,0 4.24571,1.37045 1.55855,1.34358 1.55855,3.73516 0,1.50481 -0.61805,2.82151 -0.61804,1.28984 -1.71978,2.57968 -1.10173,1.28983 -2.57967,2.7409 l -4.00387,3.95013 v 0.10748 h 9.70065 z m 10.93675,0 h -2.31096 v -13.40893 q 0,-1.15548 0.0269,-1.85414 0.0269,-0.69866 0.0806,-1.45106 -0.42994,0.40307 -0.77928,0.72553 -0.34933,0.29559 -0.88676,0.7524 l -2.04224,1.66604 -1.23609,-1.58542 5.18622,-4.03074 h 1.96162 z m 15.37057,0 h -2.31096 v -13.40893 q 0,-1.15548 0.0269,-1.85414 0.0269,-0.69866 0.0806,-1.45106 -0.42995,0.40307 -0.77928,0.72553 -0.34933,0.29559 -0.88676,0.7524 l -2.04224,1.66604 -1.2361,-1.58542 5.18622,-4.03074 h 1.96163 z m 19.885,-9.62003 q 0,3.09023 -0.64492,5.32057 -0.64492,2.20348 -2.04224,3.38583 -1.39732,1.18235 -3.70828,1.18235 -3.25146,0 -4.81002,-2.60655 -1.53168,-2.63342 -1.53168,-7.2822 0,-3.11711 0.61805,-5.32058 0.64492,-2.20347 2.04224,-3.35895 1.39732,-1.18235 3.68141,-1.18235 3.22459,0 4.81002,2.60655 1.58542,2.57967 1.58542,7.25533 z m -10.37244,0 q 0,3.95012 0.88676,5.91175 0.91364,1.96163 3.09024,1.96163 2.14973,0 3.06336,-1.93476 0.94051,-1.96163 0.94051,-5.93862 0,-3.92326 -0.94051,-5.88488 -0.91363,-1.96163 -3.06336,-1.96163 -2.1766,0 -3.09024,1.96163 -0.88676,1.96162 -0.88676,5.88488 z m 25.74301,0 q 0,3.09023 -0.64492,5.32057 -0.64492,2.20348 -2.04224,3.38583 -1.39733,1.18235 -3.70828,1.18235 -3.25147,0 -4.81002,-2.60655 -1.53168,-2.63342 -1.53168,-7.2822 0,-3.11711 0.61805,-5.32058 0.64491,-2.20347 2.04224,-3.35895 1.39732,-1.18235 3.68141,-1.18235 3.22459,0 4.81001,2.60655 1.58543,2.57967 1.58543,7.25533 z m -10.37244,0 q 0,3.95012 0.88676,5.91175 0.91364,1.96163 3.09024,1.96163 2.14972,0 3.06336,-1.93476 0.9405,-1.96163 0.9405,-5.93862 0,-3.92326 -0.9405,-5.88488 -0.91364,-1.96163 -3.06336,-1.96163 -2.1766,0 -3.09024,1.96163 -0.88676,1.96162 -0.88676,5.88488 z m 15.3437,9.62003 7.87337,-17.03659 h -10.34556 v -2.14973 h 12.87149 v 1.82727 l -7.79276,17.35905 z m 13.19396,-8.19584 q 0,-2.06911 0.34933,-4.05761 0.37621,-2.01537 1.31671,-3.62766 0.96738,-1.63917 2.68716,-2.60655 1.71978,-0.96738 4.43382,-0.96738 0.5643,0 1.23609,0.0538 0.69866,0.0537 1.12861,0.1881 v 2.01537 q -0.48369,-0.16123 -1.10174,-0.24185 -0.59117,-0.0806 -1.20922,-0.0806 -1.85414,0 -3.09023,0.61804 -1.2361,0.61805 -1.96163,1.69292 -0.69866,1.07486 -1.02112,2.47218 -0.32246,1.39733 -0.40308,2.98275 h 0.16123 q 0.61805,-0.94051 1.71979,-1.58542 1.10173,-0.67179 2.82151,-0.67179 2.49906,0 4.03074,1.53168 1.53168,1.50481 1.53168,4.29945 0,3.00962 -1.66603,4.7294 -1.63917,1.71979 -4.43382,1.71979 -1.82727,0 -3.30521,-0.91364 -1.47793,-0.91363 -2.3647,-2.79464 -0.85989,-1.88102 -0.85989,-4.75628 z m 6.50293,6.47606 q 1.69291,0 2.7409,-1.07487 1.048,-1.10173 1.048,-3.38582 0,-1.82727 -0.94051,-2.90213 -0.91363,-1.07486 -2.76778,-1.07486 -1.26296,0 -2.20347,0.53743 -0.9405,0.51056 -1.47793,1.31671 -0.51056,0.80614 -0.51056,1.66604 0,1.15547 0.45681,2.31095 0.45682,1.12861 1.37045,1.88101 0.91364,0.72554 2.28409,0.72554 z m 19.05198,-2.25722 q 0,2.09599 -1.55856,3.17085 -1.55855,1.07487 -4.19197,1.07487 -1.50481,0 -2.60654,-0.24185 -1.07486,-0.24184 -1.90788,-0.67179 v -2.14973 q 0.85989,0.42995 2.06911,0.80615 1.23609,0.34933 2.49906,0.34933 1.80039,0 2.60654,-0.5643 0.80615,-0.59118 0.80615,-1.55855 0,-0.53744 -0.29559,-0.96738 -0.29558,-0.42995 -1.07486,-0.85989 -0.75241,-0.42995 -2.1766,-0.96738 -1.39732,-0.53743 -2.39157,-1.07486 -0.99425,-0.53744 -1.53168,-1.28984 -0.53744,-0.75241 -0.53744,-1.93476 0,-1.82726 1.47794,-2.82151 1.50481,-0.99425 3.92326,-0.99425 1.3167,0 2.44531,0.26871 1.15548,0.24185 2.14973,0.69866 l -0.80615,1.88102 q -0.91363,-0.37621 -1.90788,-0.64492 -0.99425,-0.26872 -2.04224,-0.26872 -1.45107,0 -2.23035,0.48369 -0.7524,0.45682 -0.7524,1.26297 0,0.59117 0.34933,1.02112 0.34933,0.40307 1.15548,0.80615 0.83302,0.3762 2.20347,0.91363 1.37045,0.51056 2.33783,1.04799 0.96738,0.53743 1.47794,1.31671 0.51056,0.75241 0.51056,1.90788 z"
         id="text1"
         style="font-size:26.8716px;font-family:'Noto Kufi Arabic';-inkscape-font-specification:'Noto Kufi Arabic';fill:#212121;stroke-width:2.51922"
         transform="scale(1.3586714,0.73601313)"
         aria-label="202110076s" /></g></g><g
     inkscape:groupmode="layer"
     id="layer3"
     inkscape:label="Layer 3"><g
       id="g84"
       transform="matrix(1.6769162,0,0,1.6769162,-96.519052,-230.63933)"><rect
         style="fill:#23002e;fill-opacity:1;stroke:none;stroke-opacity:1"
         id="rect83"
         width="297.34976"
         height="71.493843"
         x="244.22473"
         y="373.01138"
         ry="24.867203" /><g
         id="g83"><path
           d="m 490.6069,419.15829 q -0.2,0 -0.2,-0.2 v -2.76 q 0,-0.16 0.2,-0.16 h 17.16 q -1.48,-1.52 -2.52,-7.32 -0.6,-3.48 -1.72,-4.84 -1.08,-1.4 -3.32,-1.4 -2.76,0 -5.8,1.6 l -1.4,-2.76 q 1.72,-1.12 3.48,-1.52 1.76,-0.44 3.76,-0.44 2.4,0 4.08,0.88 1.68,0.88 2.6,2.6 0.96,1.68 1.48,4.96 0.56,3.56 1.28,5.52 0.76,1.92 1.72,2.8 v 3.04 z m 9.95998,8.75997 q -1.04,0 -1.64,-0.64 -0.6,-0.6 -0.6,-1.76 0,-1.16 0.6,-1.8 0.6,-0.6 1.64,-0.6 1.08,0 1.64,0.64 0.6,0.68 0.6,1.76 0,1.08 -0.6,1.72 -0.56,0.68 -1.64,0.68 z m -30.71999,-11.87997 h 13.32 q -0.52,-3.8 -1.8,-6.72 -2.32,-5.44 -7.48,-8.96 l 1.28,-3.04 q 4.6,2.44 7.48,7.16 2.92,4.72 3.92,11.56 h 4.44 q 0.2,0 0.2,0.16 v 2.76 q 0,0.2 -0.2,0.2 h -21.16 z m -14.44003,12.72 q -4.08,0 -7.2,-2.04 l 1.6,-2.68 q 1.28,0.68 2.64,1.12 1.4,0.48 3.04,0.48 2.72,0 4.24,-1.48 1.56,-1.44 1.56,-3.84 v -1.16 h -3.92 q -4.28,0 -6.6,-2.32 -2.32,-2.36 -2.32,-6.8 0,-3.16 1.32,-5.44 1.36,-2.32 3.84,-3.56 2.48,-1.28 5.8,-1.28 h 5.24 v 20.36 q 0,4.08 -2.44,6.36 -2.4,2.28 -6.8,2.28 z m 5.84,-12.72 v -13.16 h -1.72 q -3.56,0 -5.56,1.88 -1.96,1.88 -1.96,5.24 0,3.12 1.36,4.6 1.36,1.44 4.12,1.44 z m -32.48001,12.72 q -3.72,0 -5.88,-2.72 -2.16,-2.72 -2.16,-7.52 0,-2.48 0.4,-5 0.44,-2.52 1.24,-4.44 h 3.32 q -1.36,3.36 -1.36,9.44 0,3.4 1.36,5.24 1.36,1.88 3.84,1.88 h 1.96 q 3.48,0 5.08,-1.6 1.64,-1.56 1.64,-4.76 v -30.52 h 3.4 v 30.24 q 0,4.84 -2.4,7.28 -2.4,2.48 -7.56,2.48 z m -47.64001,-9.6 q -0.2,0 -0.2,-0.2 v -2.76 q 0,-0.16 0.2,-0.16 h 17.16 q -1.48,-1.52 -2.52,-7.32 -0.6,-3.48 -1.72,-4.84 -1.08,-1.4 -3.32,-1.4 -2.76,0 -5.8,1.6 l -1.4,-2.76 q 1.72,-1.12 3.48,-1.52 1.76,-0.44 3.76,-0.44 2.4,0 4.08,0.88 1.68,0.88 2.6,2.6 0.96,1.68 1.48,4.96 0.56,3.56 1.28,5.52 0.76,1.92 1.72,2.8 v 3.04 z m 9.95998,8.75997 q -1.04,0 -1.64,-0.64 -0.6,-0.6 -0.6,-1.76 0,-1.16 0.6,-1.8 0.6,-0.6 1.64,-0.6 1.08,0 1.64,0.64 0.6,0.68 0.6,1.76 0,1.08 -0.6,1.72 -0.56,0.68 -1.64,0.68 z m -30.71999,-11.87997 h 13.32 q -0.52,-3.8 -1.8,-6.72 -2.32,-5.44 -7.48,-8.96 l 1.28,-3.04 q 4.6,2.44 7.48,7.16 2.92,4.72 3.92,11.56 h 4.44 q 0.2,0 0.2,0.16 v 2.76 q 0,0.2 -0.2,0.2 h -21.16 z m -16.96002,3.12 q -0.2,0 -0.2,-0.2 v -2.76 q 0,-0.16 0.2,-0.16 h 7.68 v -16.28 h 3.56 v 19.4 z m 4.16001,8.15999 q -0.92,0 -1.56,-0.56 -0.68,-0.56 -0.68,-1.84 0,-1.28 0.68,-1.84 0.64,-0.56 1.56,-0.56 1.04,0 1.64,0.6 0.6,0.64 0.6,1.8 0,1.16 -0.6,1.76 -0.6,0.64 -1.64,0.64 z m 6.92,0 q -1.04,0 -1.64,-0.64 -0.6,-0.6 -0.6,-1.76 0,-1.16 0.6,-1.8 0.6,-0.6 1.64,-0.6 1.08,0 1.64,0.64 0.6,0.68 0.6,1.76 0,1.08 -0.6,1.72 -0.56,0.68 -1.64,0.68 z M 322.6468,416.03829 h 13.32 q -0.52,-3.8 -1.8,-6.72 -2.32,-5.44 -7.48,-8.96 l 1.28,-3.04 q 4.6,2.44 7.48,7.16 2.92,4.72 3.92,11.56 h 4.44 q 0.2,0 0.2,0.16 v 2.76 q 0,0.2 -0.2,0.2 h -21.16 z"
           id="text83"
           style="font-size:40px;font-family:'Noto Kufi Arabic';-inkscape-font-specification:'Noto Kufi Arabic';fill:#f9f9f9"
           aria-label="جدول جديد" /><path
           d="m 274.64682,413.044 h 13.71429 v 13.71429 h 4.57142 V 413.044 h 13.71429 v -4.57142 h -13.71429 v -13.71429 h -4.57142 v 13.71429 h -13.71429 z"
           id="path1-7"
           style="fill:#f9f9f9;stroke-width:2.28571" /></g></g></g><path
     d="M -2985.4941,-2614.2422 V 4609.7266 H 4485.9766 V -2614.2422 Z M 0,0 H 1125 V 2436 H 0 Z"
     style="display:inline;fill:#4d4d4d;stroke-width:2"
     id="path2"
     sodipodi:insensitive="true" /></svg>
