<?xml version="1.0" encoding="UTF-8" standalone="no"?>
<!-- Created with Inkscape (http://www.inkscape.org/) -->

<svg
   width="1125"
   height="2436"
   viewBox="0 0 1125 2436"
   version="1.1"
   id="svg1"
   xml:space="preserve"
   inkscape:version="1.4 (e7c3feb100, 2024-10-09)"
   sodipodi:docname="home.svg"
   xmlns:inkscape="http://www.inkscape.org/namespaces/inkscape"
   xmlns:sodipodi="http://sodipodi.sourceforge.net/DTD/sodipodi-0.dtd"
   xmlns="http://www.w3.org/2000/svg"
   xmlns:svg="http://www.w3.org/2000/svg"><sodipodi:namedview
     id="namedview1"
     pagecolor="#505050"
     bordercolor="#eeeeee"
     borderopacity="1"
     inkscape:showpageshadow="0"
     inkscape:pageopacity="0"
     inkscape:pagecheckerboard="0"
     inkscape:deskcolor="#505050"
     inkscape:document-units="px"
     inkscape:zoom="0.58624547"
     inkscape:cx="728.36383"
     inkscape:cy="593.608"
     inkscape:window-width="1366"
     inkscape:window-height="731"
     inkscape:window-x="0"
     inkscape:window-y="0"
     inkscape:window-maximized="1"
     inkscape:current-layer="layer3"
     showguides="false" /><defs
     id="defs1"><inkscape:path-effect
       effect="fillet_chamfer"
       id="path-effect3"
       is_visible="true"
       lpeversion="1"
       nodesatellites_param="F,0,0,1,0,0,0,1 @ F,0,0,1,0,0.8373166,0,1 @ F,0,0,1,0,0,0,1 @ F,0,0,1,0,0,0,1"
       radius="0"
       unit="px"
       method="auto"
       mode="F"
       chamfer_steps="1"
       flexible="false"
       use_knot_distance="true"
       apply_no_radius="true"
       apply_with_radius="true"
       only_selected="false"
       hide_knots="false" /><filter
       style="color-interpolation-filters:sRGB"
       inkscape:label="Drop Shadow"
       id="filter38"
       x="-0.013283673"
       y="-0.10880595"
       width="1.0262582"
       height="1.2176119"><feFlood
         result="flood"
         in="SourceGraphic"
         flood-opacity="0.29233513089174723"
         flood-color="rgb(0,0,0)"
         id="feFlood37" /><feGaussianBlur
         result="blur"
         in="SourceGraphic"
         stdDeviation="5.5734058"
         id="feGaussianBlur37" /><feOffset
         result="offset"
         in="blur"
         dx="-0.318693"
         dy="0.000000"
         id="feOffset37" /><feComposite
         result="comp1"
         operator="in"
         in="flood"
         in2="offset"
         id="feComposite37" /><feComposite
         result="comp2"
         operator="over"
         in="SourceGraphic"
         in2="comp1"
         id="feComposite38" /></filter><filter
       style="color-interpolation-filters:sRGB"
       inkscape:label="Drop Shadow"
       id="filter27"
       x="-0.0099359917"
       y="-0.057915123"
       width="1.0195629"
       height="1.1158302"><feFlood
         result="flood"
         in="SourceGraphic"
         flood-opacity="0.18585795197039021"
         flood-color="rgb(0,0,0)"
         id="feFlood26" /><feGaussianBlur
         result="blur"
         in="SourceGraphic"
         stdDeviation="4.1353606"
         id="feGaussianBlur26" /><feOffset
         result="offset"
         in="blur"
         dx="-0.318693"
         dy="0.000000"
         id="feOffset26" /><feComposite
         result="comp1"
         operator="in"
         in="flood"
         in2="offset"
         id="feComposite26" /><feComposite
         result="comp2"
         operator="over"
         in="SourceGraphic"
         in2="comp1"
         id="feComposite27" /></filter><filter
       style="color-interpolation-filters:sRGB"
       inkscape:label="Drop Shadow"
       id="filter27-7"
       x="-0.0099359917"
       y="-0.057915123"
       width="1.0195629"
       height="1.1158302"><feFlood
         result="flood"
         in="SourceGraphic"
         flood-opacity="0.18585795197039021"
         flood-color="rgb(0,0,0)"
         id="feFlood26-5" /><feGaussianBlur
         result="blur"
         in="SourceGraphic"
         stdDeviation="4.1353606"
         id="feGaussianBlur26-3" /><feOffset
         result="offset"
         in="blur"
         dx="-0.318693"
         dy="0.000000"
         id="feOffset26-5" /><feComposite
         result="comp1"
         operator="in"
         in="flood"
         in2="offset"
         id="feComposite26-6" /><feComposite
         result="comp2"
         operator="over"
         in="SourceGraphic"
         in2="comp1"
         id="feComposite27-2" /></filter></defs><g
     inkscape:groupmode="layer"
     id="layer2"
     inkscape:label="Layer 2"><rect
       style="display:inline;fill:#ffffff;fill-opacity:1;stroke-width:2"
       id="rect2"
       width="1125"
       height="2436"
       x="0"
       y="0" /></g><g
     inkscape:label="Layer 1"
     inkscape:groupmode="layer"
     id="layer1"><g
       id="g1"
       transform="matrix(0.970984,0,0,1.7924248,16.31688,-24.393619)"><rect
         style="display:inline;fill:#f9f9f9;fill-opacity:1;stroke-width:0.430108;filter:url(#filter38)"
         id="rect4"
         width="1030.9548"
         height="122.93605"
         x="47.022594"
         y="54.152542"
         ry="13.873499" /><ellipse
         style="fill:#4d4d4d;fill-opacity:1;stroke-width:2.3415"
         id="path40"
         cy="115.62057"
         cx="163.75543"
         rx="70.963013"
         ry="38.441753" /><path
         d="m 540.95395,134.392 c 4.4587,0 8.10673,-1.73276 8.10673,-3.85057 h -16.21346 c 0,2.11781 3.64802,3.85057 8.10673,3.85057 z m 24.32019,-11.55166 v -9.62636 c 0,-5.9106 -6.60699,-10.85856 -18.24014,-12.16774 v -1.309195 c 0,-1.597974 -2.71575,-2.887908 -6.08005,-2.887908 -3.3643,0 -6.08004,1.289934 -6.08004,2.887908 v 1.309195 c -11.59262,1.30918 -18.24015,6.23788 -18.24015,12.16774 v 9.62636 l -8.10672,3.85055 v 1.92527 h 64.85382 v -1.92527 z m -8.10673,1.92528 h -32.42692 v -11.55164 c 0,-4.77469 6.12059,-8.66375 16.21346,-8.66375 10.09288,0 16.21346,3.88906 16.21346,8.66375 z"
         id="path1"
         style="fill:#4a4a4a;fill-opacity:1;stroke:none;stroke-width:2.79351" /><path
         d="m 944.92816,133.98591 h 77.28244 c 3.0353,0 5.5214,-0.32719 5.5214,-2.09089 0,-1.76368 -2.4861,-2.0909 -5.5214,-2.0909 h -77.28244 c -3.0363,0 -5.52041,0.32722 -5.52041,2.0909 0,1.7637 2.48411,2.09089 5.52041,2.09089 z m 0,-12.8268 h 77.28244 c 3.0353,0 5.5214,-0.32721 5.5214,-2.09089 0,-1.7637 -2.4861,-2.0909 -5.5214,-2.0909 h -77.28244 c -3.0363,0 -5.52041,0.3272 -5.52041,2.0909 0,1.76368 2.48411,2.09089 5.52041,2.09089 z m -5.52041,-14.9177 c 0,1.7637 2.48411,2.09091 5.52041,2.09091 h 77.28244 c 3.0353,0 5.5214,-0.32721 5.5214,-2.09091 0,-1.76368 -2.4861,-2.0909 -5.5214,-2.0909 h -77.28244 c -3.0363,0 -5.52041,0.32722 -5.52041,2.0909 z"
         id="path1-1"
         style="fill:#212121;fill-opacity:1;stroke:none;stroke-width:4.20735"
         sodipodi:nodetypes="sssssssssssssssssssss" /><text
         xml:space="preserve"
         style="font-size:26.8716px;font-family:'Noto Kufi Arabic';-inkscape-font-specification:'Noto Kufi Arabic';text-align:start;writing-mode:lr-tb;direction:ltr;text-anchor:start;fill:#212121;stroke-width:2.51922"
         x="196.86992"
         y="166.69696"
         id="text1"
         transform="scale(1.3586714,0.73601313)"><tspan
           sodipodi:role="line"
           style="stroke-width:2.51922"
           x="196.86992"
           y="166.69696"
           id="tspan2">202110076s</tspan></text></g></g><g
     inkscape:groupmode="layer"
     id="layer3"
     inkscape:label="Layer 3"><g
       id="g84"
       transform="matrix(1.6769162,0,0,1.6769162,-96.519052,-230.63933)"><rect
         style="fill:#23002e;fill-opacity:1;stroke:none;stroke-opacity:1"
         id="rect83"
         width="297.34976"
         height="71.493843"
         x="244.22473"
         y="373.01138"
         ry="24.867203" /><g
         id="g83"><text
           xml:space="preserve"
           style="font-size:40px;font-family:'Noto Kufi Arabic';-inkscape-font-specification:'Noto Kufi Arabic';text-align:start;writing-mode:lr-tb;direction:ltr;text-anchor:start;fill:#f9f9f9;fill-opacity:1;stroke:none;stroke-opacity:1"
           x="320.8468"
           y="419.15829"
           id="text83"><tspan
             sodipodi:role="line"
             id="tspan83"
             x="320.8468"
             y="419.15829">جدول جديد</tspan></text><path
           d="m 274.64682,413.044 h 13.71429 v 13.71429 h 4.57142 V 413.044 h 13.71429 v -4.57142 h -13.71429 v -13.71429 h -4.57142 v 13.71429 h -13.71429 z"
           id="path1-7"
           style="fill:#f9f9f9;stroke-width:2.28571" /></g></g></g><path
     d="M -2985.4941,-2614.2422 V 4609.7266 H 4485.9766 V -2614.2422 Z M 0,0 H 1125 V 2436 H 0 Z"
     style="display:inline;fill:#4d4d4d;stroke-width:2"
     id="path2"
     sodipodi:insensitive="true" /></svg>
