<?xml version="1.0" encoding="UTF-8" standalone="no"?>
<!-- Created with Inkscape (http://www.inkscape.org/) -->

<svg
   width="1125"
   height="2436"
   viewBox="0 0 1125 2436"
   version="1.1"
   id="svg1"
   xml:space="preserve"
   inkscape:version="1.4 (e7c3feb100, 2024-10-09)"
   sodipodi:docname="shedualme.svg"
   xmlns:inkscape="http://www.inkscape.org/namespaces/inkscape"
   xmlns:sodipodi="http://sodipodi.sourceforge.net/DTD/sodipodi-0.dtd"
   xmlns="http://www.w3.org/2000/svg"
   xmlns:svg="http://www.w3.org/2000/svg"><sodipodi:namedview
     id="namedview1"
     pagecolor="#505050"
     bordercolor="#eeeeee"
     borderopacity="1"
     inkscape:showpageshadow="0"
     inkscape:pageopacity="0"
     inkscape:pagecheckerboard="0"
     inkscape:deskcolor="#505050"
     inkscape:document-units="px"
     inkscape:zoom="0.20142959"
     inkscape:cx="1141.8382"
     inkscape:cy="1236.164"
     inkscape:window-width="1366"
     inkscape:window-height="731"
     inkscape:window-x="0"
     inkscape:window-y="0"
     inkscape:window-maximized="1"
     inkscape:current-layer="layer1" /><defs
     id="defs1"><inkscape:path-effect
       effect="fillet_chamfer"
       id="path-effect17"
       is_visible="true"
       lpeversion="1"
       nodesatellites_param="F,0,0,1,0,109.00957,0,1 @ F,0,0,1,0,96.690003,0,1 @ F,0,0,1,0,0,0,1 @ F,0,0,1,0,0,0,1"
       radius="24.825848"
       unit="px"
       method="auto"
       mode="F"
       chamfer_steps="1"
       flexible="false"
       use_knot_distance="true"
       apply_no_radius="true"
       apply_with_radius="true"
       only_selected="false"
       hide_knots="false" /></defs><g
     inkscape:label="Layer 1"
     inkscape:groupmode="layer"
     id="layer1"><rect
       style="display:inline;fill:#ffffff;fill-opacity:1;stroke-width:5"
       id="rect2"
       width="1125"
       height="2436"
       x="6"
       y="0" /><text
       xml:space="preserve"
       style="font-size:225.054px;font-family:'DejaVu Sans';-inkscape-font-specification:'DejaVu Sans';text-align:start;writing-mode:lr-tb;direction:ltr;text-anchor:start;display:inline;fill:#e1e1e1;fill-opacity:1;stroke-width:13.1868"
       x="193.67241"
       y="365.87891"
       id="text3"><tspan
         sodipodi:role="line"
         id="tspan3"
         x="193.67241"
         y="365.87891"
         style="font-style:normal;font-variant:normal;font-weight:normal;font-stretch:normal;font-family:'Noto Kufi Arabic';-inkscape-font-specification:'Noto Kufi Arabic';fill:#000000;fill-opacity:1;stroke-width:13.1868">جدولني</tspan></text><g
       id="g13"><rect
         style="fill:#f2f2f2;fill-opacity:1;stroke-width:2;stroke:#a7a7a7;stroke-opacity:1;stroke-dasharray:none"
         id="rect4"
         width="825.04022"
         height="117.86289"
         x="155.97989"
         y="875.79675"
         ry="29.490875" /><text
         xml:space="preserve"
         style="font-style:normal;font-variant:normal;font-weight:normal;font-stretch:normal;font-size:42.6667px;font-family:'Noto Kufi Arabic';-inkscape-font-specification:'Noto Kufi Arabic';text-align:start;writing-mode:lr-tb;direction:ltr;text-anchor:start;fill:#000000;fill-opacity:1;stroke:none;stroke-width:2;stroke-dasharray:none;stroke-opacity:1"
         x="709.14709"
         y="850.95258"
         id="text12"><tspan
           sodipodi:role="line"
           id="tspan12"
           x="709.14709"
           y="850.95258">الرقم الجامعي</tspan></text><path
         d="m 927.84248,919.4782 a 5.25,5.25 0 1 1 0,10.5 5.25,5.25 0 0 1 0,-10.5 m 0,22.5 c 7.425,0 15.25,3.65 15.25,5.25 v 2.75 h -30.5 v -2.75 c 0,-1.6 7.825,-5.25 15.25,-5.25 m 0,-27.25 c -5.525,0 -10,4.475 -10,10 0,5.525 4.475,10 10,10 5.525,0 10,-4.475 10,-10 0,-5.525 -4.475,-10 -10,-10 z m 0,22.5 c -6.675,0 -20,3.35 -20,10 v 7.5 h 40 v -7.5 c 0,-6.65 -13.325,-10 -20,-10 z"
         id="path1"
         style="fill:#727272;fill-opacity:1;stroke-width:2.5" /></g><g
       id="g15"
       transform="translate(0,-64)"><text
         xml:space="preserve"
         style="font-style:normal;font-variant:normal;font-weight:normal;font-stretch:normal;font-size:42.6667px;font-family:'Noto Kufi Arabic';-inkscape-font-specification:'Noto Kufi Arabic';text-align:start;writing-mode:lr-tb;direction:ltr;text-anchor:start;fill:#000000;fill-opacity:1;stroke:none;stroke-width:2;stroke-dasharray:none;stroke-opacity:1"
         x="750.48047"
         y="1169.8245"
         id="text13"><tspan
           sodipodi:role="line"
           id="tspan13"
           x="750.48047"
           y="1169.8245">كلمة المرور</tspan></text><rect
         style="fill:#f2f2f2;fill-opacity:1;stroke:#a7a7a7;stroke-width:2;stroke-dasharray:none;stroke-opacity:1"
         id="rect13"
         width="825.04022"
         height="117.86289"
         x="155.97989"
         y="1195.7969"
         ry="29.490999" /><rect
         style="fill:#7364fb;fill-opacity:1;stroke:none;stroke-width:2;stroke-dasharray:none;stroke-opacity:1"
         id="rect14"
         width="177.70296"
         height="118.86289"
         x="155.97989"
         y="1194.7969"
         ry="29.490875" /><path
         d="m 244.83137,1232.2283 a 39.08,39.08 0 0 1 35.28,22 c -6.6,13.48 -20.08,22 -35.28,22 -15.2,0 -28.68,-8.52 -35.28,-22 a 39.08,39.08 0 0 1 35.28,-22 m 0,-8 c -20,0 -37.08,12.44 -44,30 6.92,17.56 24,30 44,30 20,0 37.08,-12.44 44,-30 -6.92,-17.56 -24,-30 -44,-30 z m 0,20 a 10,10 0 0 1 0,20 10,10 0 0 1 0,-20 m 0,-8 c -9.92,0 -18,8.08 -18,18 0,9.92 8.08,18 18,18 9.92,0 18,-8.08 18,-18 0,-9.92 -8.08,-18 -18,-18 z"
         id="path1-5"
         style="stroke-width:4" /><path
         d="m 942.84248,1248.0617 h -2.5 v -3.8096 c 0,-5.2572 -5.6,-9.5238 -12.5,-9.5238 -6.9,0 -12.5,4.2666 -12.5,9.5238 v 3.8096 h -2.5 c -2.75,0 -5,1.7142 -5,3.8095 v 19.0476 c 0,2.0953 2.25,3.8095 5,3.8095 h 30 c 2.75,0 5,-1.7142 5,-3.8095 v -19.0476 c 0,-2.0953 -2.25,-3.8095 -5,-3.8095 z m -22.5,-3.8096 c 0,-3.1619 3.35,-5.7143 7.5,-5.7143 4.15,0 7.5,2.5524 7.5,5.7143 v 3.8096 h -15 z m 22.5,26.6667 h -30 v -19.0476 h 30 z m -15,-5.7143 c 2.75,0 5,-1.7143 5,-3.8096 0,-2.0952 -2.25,-3.8095 -5,-3.8095 -2.75,0 -5,1.7143 -5,3.8095 0,2.0953 2.25,3.8096 5,3.8096 z"
         id="path1-0"
         style="fill:#727272;fill-opacity:1;stroke-width:2.18218" /></g><text
       xml:space="preserve"
       style="font-style:normal;font-variant:normal;font-weight:normal;font-stretch:normal;font-size:42.6667px;font-family:'Noto Kufi Arabic';-inkscape-font-specification:'Noto Kufi Arabic';text-align:start;writing-mode:lr-tb;direction:ltr;text-anchor:start;fill:#ae12ff;fill-opacity:1;stroke:none;stroke-width:2;stroke-dasharray:none;stroke-opacity:1"
       x="319.90244"
       y="1361.1211"
       id="text15"><tspan
         sodipodi:role="line"
         id="tspan15"
         x="319.90244"
         y="1361.1211">تسجيل دخول مندون حساب</tspan></text><text
       xml:space="preserve"
       style="font-style:normal;font-variant:normal;font-weight:normal;font-stretch:normal;font-size:42.6667px;font-family:'Noto Kufi Arabic';-inkscape-font-specification:'Noto Kufi Arabic';text-align:start;writing-mode:lr-tb;direction:ltr;text-anchor:start;fill:#ffffff;fill-opacity:1;stroke:none;stroke-width:2;stroke-dasharray:none;stroke-opacity:1"
       x="372.89511"
       y="1487.3599"
       id="text16"><tspan
         sodipodi:role="line"
         id="tspan16"
         x="372.89511"
         y="1487.3599" /></text><g
       id="g17"><rect
         style="fill:#ae12ff;fill-opacity:1;stroke:none;stroke-width:2.01756;stroke-dasharray:none;stroke-opacity:1"
         id="rect15"
         width="391.20981"
         height="99.189934"
         x="372.89511"
         y="1437.7649"
         ry="24.825848" /><text
         xml:space="preserve"
         style="font-style:normal;font-variant:normal;font-weight:normal;font-stretch:normal;font-size:42.6667px;font-family:'Noto Kufi Arabic';-inkscape-font-specification:'Noto Kufi Arabic';text-align:start;writing-mode:lr-tb;direction:ltr;text-anchor:start;fill:#ffffff;fill-opacity:1;stroke:none;stroke-width:2;stroke-dasharray:none;stroke-opacity:1"
         x="415.56659"
         y="1500.4532"
         id="text17"><tspan
           sodipodi:role="line"
           id="tspan17"
           x="415.56659"
           y="1500.4532">تسجيل الدخول</tspan></text><path
         d="m 729.07847,1471.0555 v 33.6088 h -24.15675 v -33.6088 h 24.15675 m 0,-4.2011 h -24.15675 c -2.21436,0 -4.02612,1.8905 -4.02612,4.2011 v 37.8099 h 32.209 v -37.8099 c 0,-2.3106 -1.81176,-4.2011 -4.02613,-4.2011 z m -5.03265,17.8547 c -1.67085,0 -3.0196,1.4074 -3.0196,3.1508 0,1.7435 1.34875,3.1509 3.0196,3.1509 1.67084,0 3.01959,-1.4074 3.01959,-3.1509 0,-1.7434 -1.34875,-3.1508 -3.01959,-3.1508 z"
         id="path1-9"
         style="fill:#ffffff;fill-opacity:1;stroke-width:2.05634" /></g><path
       style="fill:#3e3e3e;fill-opacity:1;stroke:none;stroke-width:2;stroke-dasharray:none;stroke-opacity:1"
       id="rect17"
       width="1125"
       height="163.54387"
       x="6"
       y="2272.4561"
       ry="0"
       inkscape:path-effect="#path-effect17"
       sodipodi:type="rect"
       rx="0"
       d="M 115.00957,2272.4561 H 1034.31 a 96.690003,96.690003 45 0 1 96.69,96.69 v 66.8538 H 6 v -54.5343 a 109.00957,109.00957 135 0 1 109.00957,-109.0095 z" /><rect
       style="fill:#3e3e3e;fill-opacity:1;stroke:none;stroke-width:2;stroke-dasharray:none;stroke-opacity:1"
       id="rect18"
       width="1185.1625"
       height="46.104691"
       x="-24.073833"
       y="0"
       ry="0" /></g><path
     d="m -2543.168,-1970.0605 v 6376.121 h 6223.336 v -6376.121 z M 0,0 H 1125 V 2436 H 0 Z"
     style="display:inline;fill:#525252;stroke-width:19.0259"
     id="path2"
     sodipodi:insensitive="true" /></svg>
