<?xml version="1.0" encoding="UTF-8" standalone="no"?>
<!-- Created with Inkscape (http://www.inkscape.org/) -->

<svg
   width="1125"
   height="2436"
   viewBox="0 0 1125 2436"
   version="1.1"
   id="svg1"
   xml:space="preserve"
   inkscape:version="1.4 (e7c3feb100, 2024-10-09)"
   sodipodi:docname="Login.svg"
   xmlns:inkscape="http://www.inkscape.org/namespaces/inkscape"
   xmlns:sodipodi="http://sodipodi.sourceforge.net/DTD/sodipodi-0.dtd"
   xmlns="http://www.w3.org/2000/svg"
   xmlns:svg="http://www.w3.org/2000/svg"><sodipodi:namedview
     id="namedview1"
     pagecolor="#505050"
     bordercolor="#eeeeee"
     borderopacity="1"
     inkscape:showpageshadow="0"
     inkscape:pageopacity="0"
     inkscape:pagecheckerboard="0"
     inkscape:deskcolor="#505050"
     inkscape:document-units="px"
     inkscape:zoom="0.15427009"
     inkscape:cx="586.63349"
     inkscape:cy="939.91001"
     inkscape:window-width="1366"
     inkscape:window-height="731"
     inkscape:window-x="0"
     inkscape:window-y="0"
     inkscape:window-maximized="1"
     inkscape:current-layer="layer1" /><defs
     id="defs1"><inkscape:path-effect
       effect="fillet_chamfer"
       id="path-effect17"
       is_visible="true"
       lpeversion="1"
       nodesatellites_param="F,0,0,1,0,109.00957,0,1 @ F,0,0,1,0,96.690003,0,1 @ F,0,0,1,0,0,0,1 @ F,0,0,1,0,0,0,1"
       radius="24.825848"
       unit="px"
       method="auto"
       mode="F"
       chamfer_steps="1"
       flexible="false"
       use_knot_distance="true"
       apply_no_radius="true"
       apply_with_radius="true"
       only_selected="false"
       hide_knots="false" /></defs><g
     inkscape:label="Layer 1"
     inkscape:groupmode="layer"
     id="layer1"><rect
       style="display:inline;fill:#ffffff;fill-opacity:1;stroke-width:5.01332"
       id="rect2"
       width="1131"
       height="2436"
       x="-3"
       y="0" /><path
       style="font-size:225.054px;font-family:'Noto Kufi Arabic';-inkscape-font-specification:'Noto Kufi Arabic';stroke-width:13.1868"
       d="m 805.67098,365.87891 q -1.12527,0 -1.12527,-1.12527 v -15.52873 q 0,-0.90022 1.12527,-0.90022 h 96.54817 q -8.327,-8.55205 -14.17841,-41.18488 -3.37581,-19.5797 -9.67732,-27.23153 -6.07646,-7.87689 -18.67948,-7.87689 -15.52873,0 -32.63283,9.00216 l -7.87689,-15.52873 q 9.67732,-6.30151 19.5797,-8.55205 9.90237,-2.47559 21.15507,-2.47559 13.50324,0 22.95551,4.95118 9.45227,4.95119 14.62851,14.62851 5.4013,9.45227 8.327,27.9067 3.15076,20.02981 7.20173,31.05745 4.27602,10.80259 9.67732,15.75378 v 17.10411 z m 56.03836,49.28662 q -5.85141,0 -9.22722,-3.60086 -3.37581,-3.37581 -3.37581,-9.90238 0,-6.52657 3.37581,-10.12743 3.37581,-3.37581 9.22722,-3.37581 6.07645,0 9.22721,3.60086 3.37581,3.82592 3.37581,9.90238 0,6.07646 -3.37581,9.67732 -3.15076,3.82592 -9.22721,3.82592 z M 688.86789,348.32469 h 74.94299 q -2.92571,-21.38013 -10.12743,-37.80907 -13.05314,-30.60734 -42.0851,-50.41209 l 7.20173,-17.10411 q 25.88121,13.7283 42.08509,40.28467 16.42895,26.55637 22.0553,65.0406 h 24.98099 q 1.12527,0 1.12527,0.90022 v 15.52873 q 0,1.12527 -1.12527,1.12527 H 688.86789 Z m -81.24466,71.56718 q -22.95551,0 -40.50972,-11.47776 l 9.00216,-15.07862 q 7.20173,3.82592 14.85356,6.30152 7.87689,2.70064 17.10411,2.70064 15.30367,0 23.85572,-8.32699 8.77711,-8.10195 8.77711,-21.60519 v -6.52656 h -22.05529 q -24.08078,0 -37.13391,-13.05314 -13.05314,-13.27818 -13.05314,-38.25918 0,-17.77926 7.42679,-30.60734 7.65183,-13.05313 21.60518,-20.02981 13.95335,-7.20172 32.63283,-7.20172 h 29.48208 V 371.2802 q 0,22.95551 -13.7283,35.78359 -13.50324,12.82808 -38.25918,12.82808 z m 32.85788,-71.56718 v -74.04276 h -9.67732 q -20.0298,0 -31.2825,10.57754 -11.02765,10.57753 -11.02765,29.48207 0,17.55421 7.65184,25.88121 7.65183,8.10194 23.18056,8.10194 z m -160.23844,17.55422 q -1.12527,0 -1.12527,-1.12527 v -15.52873 q 0,-0.90022 1.12527,-0.90022 h 29.70712 V 194.83787 h 20.02981 v 171.04104 z m -76.74331,0 q -1.12527,0 -1.12527,-1.12527 v -15.52873 q 0,-0.90022 1.12527,-0.90022 h 29.70713 v -91.59697 h 20.02981 v 91.59697 h 29.25702 q 1.12527,0 1.12527,0.90022 v 15.52873 q 0,1.12527 -1.12527,1.12527 z m 35.10821,-133.00685 q -5.8514,0 -9.22721,-3.37581 -3.37581,-3.60086 -3.37581,-10.12743 0,-6.52656 3.37581,-9.90237 3.37581,-3.60087 9.22721,-3.60087 6.07646,0 9.22722,3.82592 3.37581,3.60087 3.37581,9.67732 0,6.07646 -3.37581,9.90238 -3.15076,3.60086 -9.22722,3.60086 z M 247.53678,419.89187 q -21.15507,0 -33.30799,-14.62851 -11.92786,-14.62851 -11.92786,-39.60951 0,-11.70281 1.80043,-21.15507 2.02549,-9.45227 6.07646,-19.35465 h 18.67948 q -3.60086,9.45227 -4.95119,18.45443 -1.35032,8.77711 -1.35032,20.70497 0,18.22937 7.42678,28.13175 7.65184,9.90237 21.83024,9.90237 h 41.86004 q 10.8026,0 19.12959,-2.9257 8.327,-2.70065 13.05314,-7.42678 4.95118,-4.50108 4.95118,-9.90238 0,-8.7771 -16.65399,-13.72829 -11.02765,-3.37581 -19.35465,-6.52657 -8.10194,-3.37581 -12.60302,-8.7771 -4.50108,-5.62635 -4.50108,-14.85357 0,-12.82807 7.87689,-25.20604 7.87689,-11.92787 20.02981,-19.35465 12.15291,-7.65183 24.53088,-7.65183 7.87689,0 13.50324,2.70064 5.85141,2.70065 11.02765,8.10195 5.17624,5.17624 12.82808,17.32916 13.95334,22.5054 22.28034,28.80691 3.37581,2.47559 6.97668,4.05097 3.60086,1.35032 7.87689,1.35032 h 1.12527 q 1.12527,0 1.12527,0.90022 v 15.52873 q 0,1.12527 -1.12527,1.12527 h -1.12527 q -9.45227,0 -18.22938,-4.27603 -8.7771,-4.27603 -18.00432,-13.95335 -2.25054,-2.70065 -11.47775,-15.52872 -10.57754,-14.85357 -17.10411,-20.70497 -5.8514,-5.17624 -12.15291,-5.17624 -4.72614,0 -9.90238,2.9257 -5.17624,2.70065 -9.67732,7.20173 -4.50108,4.50108 -7.42678,9.67732 -2.70065,4.95119 -2.70065,9.45227 0,4.72613 5.17624,7.65183 5.17624,2.9257 11.70281,4.72614 8.327,2.25054 13.95335,4.27602 5.62635,2.02549 9.00216,3.82592 13.72829,7.20173 13.72829,19.35464 0,44.5607 -57.83888,44.5607 z m 8.32718,46.81105 q -5.17625,0 -8.77711,-3.15076 -3.82592,-3.15076 -3.82592,-10.35248 0,-7.20173 3.82592,-10.35249 3.60086,-3.15075 8.77711,-3.15075 5.8514,0 9.22721,3.37581 3.37581,3.60086 3.37581,10.12743 0,6.52656 -3.37581,9.90237 -3.37581,3.60087 -9.22721,3.60087 z m 38.93434,0 q -5.85141,0 -9.22722,-3.60087 -3.37581,-3.37581 -3.37581,-9.90237 0,-6.52657 3.37581,-10.12743 3.37581,-3.37581 9.22722,-3.37581 6.07646,0 9.22721,3.60086 3.37581,3.82592 3.37581,9.90238 0,6.07645 -3.37581,9.67732 -3.15075,3.82592 -9.22721,3.82592 z"
       id="text3"
       aria-label="جدولني" /><g
       id="g13"
       transform="translate(-6)"><rect
         style="fill:#f2f2f2;fill-opacity:1;stroke:#a7a7a7;stroke-width:2;stroke-dasharray:none;stroke-opacity:1"
         id="rect4"
         width="825.04022"
         height="117.86289"
         x="155.97989"
         y="875.79675"
         ry="29.490875" /><path
         d="m 965.4885,818.52588 h 3.79734 v 32.4267 h -3.79734 z m -17.96268,32.4267 q -0.21334,0 -0.21334,-0.21334 v -2.944 q 0,-0.17067 0.21334,-0.17067 h 5.632 v -29.09869 h 3.79734 v 32.4267 z m -4.86397,0 v 1.024 q 0,4.30933 -1.96267,6.74133 -1.96266,2.47467 -5.632,2.47467 -2.09067,0 -4.352,-1.19466 l 1.10933,-2.85867 q 1.024,0.46933 1.70667,0.59733 0.68267,0.128 1.45067,0.128 1.92,0 2.98667,-1.57867 1.10933,-1.536 1.10933,-4.096 v -21.93068 h 3.584 v 17.36534 h 5.29067 q 0.21334,0 0.21334,0.17067 v 2.944 q 0,0.21334 -0.21334,0.21334 z m -35.41332,0 q -0.21333,0 -0.21333,-0.21334 v -2.944 q 0,-0.17067 0.21333,-0.17067 h 6.48534 q -1.06666,-1.23733 -1.664,-2.98667 -0.55467,-1.74933 -0.55467,-3.456 0,-3.328 1.40801,-5.76 1.45066,-2.47467 4.05333,-3.79734 2.64534,-1.36533 6.22934,-1.36533 h 5.58934 v 20.69335 z m 13.90935,-3.32801 h 4.01067 v -14.03734 h -1.83467 q -3.79734,0 -5.93067,2.00533 -2.09067,1.96267 -2.09067,5.54668 0,6.48533 5.84534,6.48533 z m -4.18132,-22.784 q -0.98133,0 -1.664,-0.59733 -0.72533,-0.59733 -0.72533,-1.96267 0,-1.36533 0.72533,-1.96267 0.68267,-0.59733 1.664,-0.59733 1.10934,0 1.74934,0.68267 0.64,0.64 0.64,1.87733 0,1.23734 -0.64,1.92 -0.64,0.64 -1.74934,0.64 z m 7.38134,0 q -1.10933,0 -1.74933,-0.64 -0.64,-0.68266 -0.64,-1.92 0,-1.23733 0.64,-1.87733 0.64,-0.68267 1.74933,-0.68267 1.152,0 1.74934,0.72533 0.64,0.68267 0.64,1.83467 0,1.152 -0.64,1.87734 -0.59734,0.68266 -1.74934,0.68266 z m -36.56539,26.11201 q -3.02933,0 -3.02933,3.11466 v 10.53868 h -3.58401 v -11.17868 q 0,-2.64533 1.408,-4.224 1.45067,-1.57867 3.79734,-1.57867 h 0.29867 q -1.57867,-3.968 -1.57867,-7.296 0,-3.79734 1.536,-6.78401 1.57867,-1.32266 3.584,-2.09067 2.04801,-0.768 4.22401,-0.768 1.32266,0 2.51733,0.29867 1.19467,0.256 2.176,0.85333 2.00534,1.19467 3.07201,3.37067 1.10933,2.17601 1.10933,4.90667 0,2.73067 -0.896,5.03467 0.93867,1.40801 2.09067,1.96267 1.152,0.512 2.944,0.512 h 0.21333 q 0.21334,0 0.21334,0.17067 v 2.944 q 0,0.21334 -0.21334,0.21334 h -0.21333 q -2.26134,0 -3.88267,-0.59734 -1.57867,-0.64 -3.072,-2.176 -1.36534,1.408 -3.15734,2.09067 -1.792,0.68267 -3.75467,0.68267 z m 1.152,-11.34935 q 0,1.96267 0.34134,3.88267 0.34133,1.92 1.28,4.13867 h 3.02933 q 2.85867,0 4.35201,-1.92 1.536,-1.96267 1.536,-5.632 0,-2.688 -1.49334,-4.39467 -1.45067,-1.70667 -3.54133,-1.70667 -2.64534,0 -4.99201,1.74933 -0.384,0.89601 -0.46933,1.83467 -0.0427,0.93867 -0.0427,2.048 z m -33.10934,-21.07735 h 3.79733 v 32.4267 h -3.79733 z m -17.96267,32.4267 q -0.21334,0 -0.21334,-0.21334 v -2.944 q 0,-0.17067 0.21334,-0.17067 h 5.632 v -29.09869 h 3.79734 v 32.4267 z m -24.49066,0 q -0.21334,0 -0.21334,-0.21334 v -2.944 q 0,-0.17067 0.21334,-0.17067 h 18.30401 q -1.664,-1.664 -2.688,-7.808 -0.59734,-3.62667 -1.83467,-5.12001 -1.19467,-1.536 -3.54134,-1.536 -2.944,0 -6.18667,1.70667 l -1.49333,-2.944 q 1.83467,-1.19467 3.712,-1.62134 1.87733,-0.46933 4.01067,-0.46933 2.60267,0 4.352,0.93867 1.74934,0.93866 2.77334,2.77333 1.024,1.83467 1.57867,5.29067 0.98133,6.69867 3.072,8.78934 h 2.85867 q 0.21333,0 0.21333,0.17067 v 2.944 q 0,0.21334 -0.21333,0.21334 z m 10.62398,9.34396 q -1.10933,0 -1.74933,-0.68266 -0.64,-0.64 -0.64,-1.87734 0,-1.23733 0.64,-1.92 0.64,-0.64 1.74933,-0.64 1.152,0 1.74934,0.68267 0.64,0.72533 0.64,1.87733 0,1.152 -0.64,1.83467 -0.59734,0.72533 -1.74934,0.72533 z m -10.19731,-12.67197 q 0.21333,0 0.21333,0.17067 v 2.944 q 0,0.21334 -0.21333,0.21334 h -9.42934 v -32.4267 h 3.79733 v 29.09869 z m -38.40001,3.32801 q -0.21333,0 -0.21333,-0.21334 v -2.944 q 0,-0.17067 0.21333,-0.17067 h 5.29067 q -1.57867,-4.096 -1.57867,-7.296 0,-3.79734 1.536,-6.78401 1.57867,-1.32266 3.58401,-2.09067 2.048,-0.768 4.224,-0.768 1.32267,0 2.51734,0.29867 1.19466,0.256 2.176,0.85333 2.00533,1.19467 3.072,3.37067 1.10933,2.17601 1.10933,4.90667 0,3.41334 -1.19466,5.80268 -1.19467,2.432 -3.45601,3.75466 -2.21867,1.28001 -5.07733,1.28001 z m 7.55201,-11.34935 q 0,1.96267 0.34133,3.88267 0.34133,1.92 1.28,4.13867 h 3.02934 q 2.85866,0 4.352,-1.92 1.536,-1.96267 1.536,-5.632 0,-2.688 -1.49333,-4.39467 -1.45067,-1.70667 -3.54134,-1.70667 -1.36533,0 -2.688,0.512 -1.28,0.46933 -2.304,1.23733 -0.34134,0.89601 -0.42667,1.83467 -0.0853,0.93867 -0.0853,2.048 z m -12.11734,11.34935 q -1.792,0 -3.88267,-0.512 -2.048,-0.55467 -4.01067,-1.62134 -3.79734,2.13334 -7.93601,2.13334 h -4.94933 q -0.21334,0 -0.21334,-0.21334 v -2.944 q 0,-0.17067 0.21334,-0.17067 h 4.90667 q 3.02933,0 5.07733,-0.85333 -1.62133,-1.19467 -3.37066,-3.456 -1.70667,-2.26134 -2.90134,-4.82134 -1.19467,-2.60267 -1.57867,-4.90667 2.34667,-2.176 5.24801,-3.41334 2.944,-1.28 5.97333,-1.28 2.68801,0 5.41867,0.85334 2.73067,0.85333 4.77867,2.26133 0,4.43734 -2.048,8.36267 -2.048,3.88267 -5.632,6.35734 2.38933,0.896 4.736,0.896 h 5.16267 q 0.21334,0 0.21334,0.17067 v 2.944 q 0,0.21334 -0.21334,0.21334 z m -7.85067,-6.10134 q 3.28533,-2.21867 4.864,-4.86401 1.62133,-2.688 1.83467,-6.18667 -2.98667,-1.57866 -6.14401,-1.57866 -3.62667,0 -7.25333,2.47466 0.64,2.94401 2.38933,5.63201 1.792,2.64533 4.30934,4.52267 z m -42.49606,16.34134 q -4.01067,0 -6.31468,-2.77333 -2.26133,-2.77334 -2.26133,-7.50934 0,-2.21867 0.34133,-4.01067 0.384,-1.792 1.152,-3.66934 h 3.54134 q -0.68267,1.792 -0.93867,3.49867 -0.256,1.664 -0.256,3.92534 0,3.456 1.408,5.33334 1.45067,1.87733 4.13867,1.87733 h 7.93601 q 2.048,0 3.62667,-0.55467 1.57867,-0.512 2.47467,-1.408 0.93866,-0.85333 0.93866,-1.87733 0,-1.664 -3.15733,-2.60267 -2.09067,-0.64 -3.66934,-1.23733 -1.536,-0.64001 -2.38933,-1.66401 -0.85334,-1.06666 -0.85334,-2.816 0,-2.432 1.49334,-4.77867 1.49333,-2.26133 3.79733,-3.66933 2.30401,-1.45067 4.65067,-1.45067 1.49334,0 2.56001,0.512 1.10933,0.512 2.09066,1.536 0.98134,0.98133 2.43201,3.28534 2.64533,4.26666 4.224,5.46133 0.64,0.46934 1.32267,0.768 0.68266,0.256 1.49333,0.256 h 0.21333 q 0.21334,0 0.21334,0.17067 v 2.944 q 0,0.21334 -0.21334,0.21334 h -0.21333 q -1.792,0 -3.456,-0.81067 -1.664,-0.81067 -3.41334,-2.64534 -0.42666,-0.512 -2.176,-2.944 -2.00533,-2.816 -3.24267,-3.92534 -1.10933,-0.98133 -2.304,-0.98133 -0.896,0 -1.87733,0.55467 -0.98134,0.512 -1.83467,1.36533 -0.85334,0.85334 -1.408,1.83467 -0.512,0.93867 -0.512,1.792 0,0.896 0.98133,1.45067 0.98133,0.55467 2.21867,0.896 1.57867,0.42667 2.64533,0.81067 1.06667,0.384 1.70667,0.72533 2.60267,1.36534 2.60267,3.66934 0,8.448 -10.96534,8.448 z m 1.57869,8.87464 q -0.98133,0 -1.664,-0.59733 -0.72533,-0.59734 -0.72533,-1.96267 0,-1.36533 0.72533,-1.96267 0.68267,-0.59733 1.664,-0.59733 1.10934,0 1.74934,0.64 0.64,0.68267 0.64,1.92 0,1.23733 -0.64,1.87733 -0.64,0.68267 -1.74934,0.68267 z m 7.38134,0 q -1.10933,0 -1.74933,-0.68267 -0.64,-0.64 -0.64,-1.87733 0,-1.23733 0.64,-1.92 0.64,-0.64 1.74933,-0.64 1.152,0 1.74934,0.68267 0.64,0.72533 0.64,1.87733 0,1.152 -0.64,1.83467 -0.59734,0.72533 -1.74934,0.72533 z"
         id="text12"
         style="font-size:42.6667px;font-family:'Noto Kufi Arabic';-inkscape-font-specification:'Noto Kufi Arabic';stroke-width:2"
         aria-label="الرقم الجامعي" /><path
         d="m 927.84248,919.4782 a 5.25,5.25 0 1 1 0,10.5 5.25,5.25 0 0 1 0,-10.5 m 0,22.5 c 7.425,0 15.25,3.65 15.25,5.25 v 2.75 h -30.5 v -2.75 c 0,-1.6 7.825,-5.25 15.25,-5.25 m 0,-27.25 c -5.525,0 -10,4.475 -10,10 0,5.525 4.475,10 10,10 5.525,0 10,-4.475 10,-10 0,-5.525 -4.475,-10 -10,-10 z m 0,22.5 c -6.675,0 -20,3.35 -20,10 v 7.5 h 40 v -7.5 c 0,-6.65 -13.325,-10 -20,-10 z"
         id="path1"
         style="fill:#727272;fill-opacity:1;stroke-width:2.5" /></g><g
       id="g15"
       transform="translate(-6,-64)"><path
         d="m 935.52606,1169.8245 q -0.21333,0 -0.21333,-0.2134 v -2.944 q 0,-0.1706 0.21333,-0.1706 h 17.96268 v -7.8507 q 0,-3.2 -1.92,-4.6933 -1.92,-1.4934 -5.93067,-1.4934 h -7.25334 v -3.4987 q 0.68267,-1.4506 1.62133,-2.8586 0.98134,-1.408 2.17601,-2.816 2.432,-2.7734 5.41867,-4.9494 2.98667,-2.176 5.80267,-3.2426 l 1.36533,3.2426 q -1.96267,0.768 -3.968,2.0054 -1.96267,1.1946 -3.712,2.688 -1.74934,1.4506 -3.11467,3.0293 -1.32267,1.5787 -2.048,3.072 h 3.712 q 5.58934,0 8.53334,2.304 2.944,2.304 2.944,6.5707 v 11.8187 z m -14.54933,0 q -0.21333,0 -0.21333,-0.2134 v -2.944 q 0,-0.1706 0.21333,-0.1706 h 5.632 v -29.0987 h 3.79734 v 29.0987 h 5.54667 q 0.21333,0 0.21333,0.1706 v 2.944 q 0,0.2134 -0.21333,0.2134 z m -20.56539,-3.328 q -1.57867,-4.096 -1.57867,-7.296 0,-3.7974 1.536,-6.7841 1.57867,-1.3226 3.584,-2.0906 2.048,-0.768 4.22401,-0.768 1.32266,0 2.51733,0.2986 1.19467,0.256 2.176,0.8534 2.00534,1.1946 3.072,3.3707 1.10934,2.176 1.10934,4.9066 0,2.7307 -0.896,5.0347 0.896,1.3653 2.00533,1.92 1.152,0.5547 3.02934,0.5547 h 0.21333 q 0.21334,0 0.21334,0.1706 v 2.944 q 0,0.2134 -0.21334,0.2134 h -0.21333 q -2.26134,0 -3.88267,-0.5974 -1.57867,-0.64 -3.072,-2.176 -1.36534,1.408 -3.15734,2.0907 -1.792,0.6827 -3.75467,0.6827 h -12.20267 q -0.21334,0 -0.21334,-0.2134 v -2.944 q 0,-0.1706 0.21334,-0.1706 z m 2.26133,-8.0214 q 0,1.9627 0.34134,3.8827 0.34133,1.92 1.28,4.1387 h 3.02933 q 2.85867,0 4.35201,-1.92 1.536,-1.9627 1.536,-5.632 0,-2.688 -1.49334,-4.3947 -1.45067,-1.7067 -3.54133,-1.7067 -1.36534,0 -2.68801,0.512 -1.28,0.4694 -2.304,1.2374 -0.34133,0.896 -0.42666,1.8346 -0.0853,0.9387 -0.0853,2.048 z m -19.28537,11.3494 q -5.12,0 -7.97867,-2.6027 -2.85867,-2.6027 -2.85867,-7.2533 0,-3.3707 1.408,-5.76 1.45067,-2.4321 4.05334,-3.7547 2.64533,-1.3227 6.22934,-1.3227 h 2.816 v -2.688 h 3.62667 v 20.0534 h 4.864 q 0.21334,0 0.21334,0.1706 v 2.944 q 0,0.2134 -0.21334,0.2134 z m 3.66934,-3.328 v -14.0374 h -2.688 q -3.84001,0 -5.93067,1.9627 -2.09067,1.9627 -2.09067,5.504 0,3.2 1.792,4.9067 1.83467,1.664 5.16267,1.664 z m -8.53339,-24.8747 q -0.98133,0 -1.664,-0.5973 -0.72533,-0.5974 -0.72533,-1.9627 0,-1.3653 0.72533,-1.9627 0.68267,-0.5973 1.664,-0.5973 1.10934,0 1.74934,0.6827 0.64,0.64 0.64,1.8773 0,1.2373 -0.64,1.92 -0.64,0.64 -1.74934,0.64 z m 7.38134,0 q -1.10933,0 -1.74933,-0.64 -0.64,-0.6827 -0.64,-1.92 0,-1.2373 0.64,-1.8773 0.64,-0.6827 1.74933,-0.6827 1.152,0 1.74934,0.7253 0.64,0.6827 0.64,1.8347 0,1.152 -0.64,1.8773 -0.59734,0.6827 -1.74934,0.6827 z m -38.69864,-4.224 h 3.79733 v 32.4267 h -3.79733 z m -17.96268,32.4267 q -0.21333,0 -0.21333,-0.2134 v -2.944 q 0,-0.1706 0.21333,-0.1706 h 5.632 v -29.0987 h 3.79734 v 32.4267 z m -20.56539,-3.328 q -1.57866,-4.096 -1.57866,-7.296 0,-3.7974 1.536,-6.7841 1.57867,-1.3226 3.584,-2.0906 2.048,-0.768 4.224,-0.768 1.32267,0 2.51734,0.2986 1.19467,0.256 2.176,0.8534 2.00534,1.1946 3.072,3.3707 1.10934,2.176 1.10934,4.9066 0,2.7307 -0.896,5.0347 0.896,1.3653 2.00533,1.92 1.152,0.5547 3.02934,0.5547 h 0.21333 q 0.21333,0 0.21333,0.1706 v 2.944 q 0,0.2134 -0.21333,0.2134 h -0.21333 q -2.26134,0 -3.88267,-0.5974 -1.57867,-0.64 -3.072,-2.176 -1.36534,1.408 -3.15734,2.0907 -1.792,0.6827 -3.75467,0.6827 h -12.20268 q -0.21333,0 -0.21333,-0.2134 v -2.944 q 0,-0.1706 0.21333,-0.1706 z m 2.26134,-8.0214 q 0,1.9627 0.34133,3.8827 0.34134,1.92 1.28,4.1387 h 3.02934 q 2.85867,0 4.352,-1.92 1.536,-1.9627 1.536,-5.632 0,-2.688 -1.49333,-4.3947 -1.45067,-1.7067 -3.54134,-1.7067 -1.36533,0 -2.688,0.512 -1.28,0.4694 -2.304,1.2374 -0.34133,0.896 -0.42667,1.8346 -0.0853,0.9387 -0.0853,2.048 z m -12.41598,11.3494 v 1.024 q 0,4.3093 -1.96267,6.7413 -1.96267,2.4747 -5.632,2.4747 -2.09067,0 -4.35201,-1.1947 l 1.10934,-2.8587 q 1.024,0.4694 1.70666,0.5974 0.68267,0.128 1.45067,0.128 1.92,0 2.98667,-1.5787 1.10933,-1.536 1.10933,-4.096 v -21.9307 h 3.58401 v 17.3654 h 5.29067 q 0.21333,0 0.21333,0.1706 v 2.944 q 0,0.2134 -0.21333,0.2134 z m -23.72272,10.24 q -4.35201,0 -7.68001,-2.176 l 1.70667,-2.8587 q 1.36533,0.7253 2.816,1.1947 1.49334,0.512 3.24267,0.512 2.90134,0 4.52267,-1.5787 1.664,-1.536 1.664,-4.096 v -1.2373 h -4.18133 q -4.56534,0 -7.04001,-2.4747 -2.47467,-2.5173 -2.47467,-7.2533 0,-3.3707 1.408,-5.8027 1.45067,-2.4747 4.09601,-3.7974 2.64533,-1.3653 6.18667,-1.3653 h 5.58934 v 21.7174 q 0,4.352 -2.60267,6.784 -2.56001,2.432 -7.25334,2.432 z m 6.22934,-13.568 v -14.0374 h -1.83467 q -3.79734,0 -5.93067,2.0054 -2.09067,2.0053 -2.09067,5.5893 0,3.328 1.45067,4.9067 1.45066,1.536 4.39467,1.536 z m -27.90406,13.568 q -2.09066,0 -4.352,-1.1947 l 1.10933,-2.8587 q 1.024,0.4694 1.70667,0.5974 0.68267,0.128 1.45067,0.128 1.92,0 2.98667,-1.5787 1.10933,-1.536 1.10933,-4.096 v -21.9307 h 3.58401 v 21.7174 q 0,4.3093 -1.96267,6.7413 -1.96267,2.4747 -5.63201,2.4747 z"
         id="text13"
         style="font-size:42.6667px;font-family:'Noto Kufi Arabic';-inkscape-font-specification:'Noto Kufi Arabic';stroke-width:2"
         aria-label="كلمة المرور" /><rect
         style="fill:#f2f2f2;fill-opacity:1;stroke:#a7a7a7;stroke-width:2;stroke-dasharray:none;stroke-opacity:1"
         id="rect13"
         width="825.04022"
         height="117.86289"
         x="155.97989"
         y="1195.7969"
         ry="29.490999" /><rect
         style="fill:#7364fb;fill-opacity:1;stroke:none;stroke-width:2;stroke-dasharray:none;stroke-opacity:1"
         id="rect14"
         width="177.70296"
         height="118.86289"
         x="155.97989"
         y="1194.7969"
         ry="29.490875" /><path
         d="m 244.83137,1232.2283 a 39.08,39.08 0 0 1 35.28,22 c -6.6,13.48 -20.08,22 -35.28,22 -15.2,0 -28.68,-8.52 -35.28,-22 a 39.08,39.08 0 0 1 35.28,-22 m 0,-8 c -20,0 -37.08,12.44 -44,30 6.92,17.56 24,30 44,30 20,0 37.08,-12.44 44,-30 -6.92,-17.56 -24,-30 -44,-30 z m 0,20 a 10,10 0 0 1 0,20 10,10 0 0 1 0,-20 m 0,-8 c -9.92,0 -18,8.08 -18,18 0,9.92 8.08,18 18,18 9.92,0 18,-8.08 18,-18 0,-9.92 -8.08,-18 -18,-18 z"
         id="path1-5"
         style="stroke-width:4" /><path
         d="m 942.84248,1248.0617 h -2.5 v -3.8096 c 0,-5.2572 -5.6,-9.5238 -12.5,-9.5238 -6.9,0 -12.5,4.2666 -12.5,9.5238 v 3.8096 h -2.5 c -2.75,0 -5,1.7142 -5,3.8095 v 19.0476 c 0,2.0953 2.25,3.8095 5,3.8095 h 30 c 2.75,0 5,-1.7142 5,-3.8095 v -19.0476 c 0,-2.0953 -2.25,-3.8095 -5,-3.8095 z m -22.5,-3.8096 c 0,-3.1619 3.35,-5.7143 7.5,-5.7143 4.15,0 7.5,2.5524 7.5,5.7143 v 3.8096 h -15 z m 22.5,26.6667 h -30 v -19.0476 h 30 z m -15,-5.7143 c 2.75,0 5,-1.7143 5,-3.8096 0,-2.0952 -2.25,-3.8095 -5,-3.8095 -2.75,0 -5,1.7143 -5,3.8095 0,2.0953 2.25,3.8096 5,3.8096 z"
         id="path1-0"
         style="fill:#727272;fill-opacity:1;stroke-width:2.18218" /></g><path
       d="m 793.30559,1361.1211 q -0.21334,0 -0.21334,-0.2133 v -2.944 q 0,-0.1707 0.21334,-0.1707 h 8.192 v -17.3654 h 3.79734 v 20.6934 z m 5.24797,-24.8747 q -0.98134,0 -1.664,-0.5973 -0.72534,-0.5974 -0.72534,-1.9627 0,-1.3653 0.72534,-1.9627 0.68266,-0.5973 1.664,-0.5973 1.10933,0 1.74933,0.6827 0.64,0.64 0.64,1.8773 0,1.2373 -0.64,1.92 -0.64,0.64 -1.74933,0.64 z m 7.38134,0 q -1.10934,0 -1.74934,-0.64 -0.64,-0.6827 -0.64,-1.92 0,-1.2373 0.64,-1.8773 0.64,-0.6827 1.74934,-0.6827 1.152,0 1.74933,0.7253 0.64,0.6827 0.64,1.8347 0,1.152 -0.64,1.8773 -0.59733,0.6827 -1.74933,0.6827 z m -24.14937,24.8747 q -1.92,0 -3.54134,-0.64 -1.62133,-0.64 -3.328,-2.3467 -0.93867,1.3227 -2.51733,2.176 -1.53601,0.8107 -3.71201,0.8107 h -14.72001 q -0.21333,0 -0.21333,-0.2133 v -2.944 q 0,-0.1707 0.21333,-0.1707 h 6.10134 v -14.0374 h 3.62667 v 14.0374 h 4.608 q 2.048,0 3.20001,-1.3653 1.152,-1.3654 1.152,-3.584 v -9.0881 h 3.62667 v 9.3014 q 0,0.3413 0,0.7253 0,0.3414 -0.0427,0.6827 1.06667,1.8347 2.304,2.6027 1.28,0.7253 3.24267,0.7253 h 2.60267 v -17.3654 h 3.62667 v 17.3654 h 5.71734 q 0.21333,0 0.21333,0.1707 v 2.944 q 0,0.2133 -0.21333,0.2133 z m -52.30935,0 q -0.21333,0 -0.21333,-0.2133 v -2.944 q 0,-0.1707 0.21333,-0.1707 h 18.30401 q -1.664,-1.664 -2.688,-7.808 -0.59733,-3.6267 -1.83467,-5.12 -1.19466,-1.536 -3.54133,-1.536 -2.944,0 -6.18667,1.7066 l -1.49334,-2.944 q 1.83467,-1.1946 3.71201,-1.6213 1.87733,-0.4693 4.01066,-0.4693 2.60267,0 4.35201,0.9386 1.74933,0.9387 2.77333,2.7734 1.024,1.8346 1.57867,5.2907 0.98134,6.6986 3.072,8.7893 h 2.85867 q 0.21334,0 0.21334,0.1707 v 2.944 q 0,0.2133 -0.21334,0.2133 z m 10.62398,9.344 q -1.10934,0 -1.74934,-0.6827 -0.64,-0.64 -0.64,-1.8773 0,-1.2374 0.64,-1.92 0.64,-0.64 1.74934,-0.64 1.152,0 1.74933,0.6826 0.64,0.7254 0.64,1.8774 0,1.152 -0.64,1.8346 -0.59733,0.7254 -1.74933,0.7254 z m -27.30669,-9.344 q -0.21333,0 -0.21333,-0.2133 v -2.944 q 0,-0.1707 0.21333,-0.1707 h 6.91201 v -17.3654 h 3.79733 v 17.3654 h 6.40001 q 0.21333,0 0.21333,0.1707 v 2.944 q 0,0.2133 -0.21333,0.2133 z m 4.73601,8.704 q -0.98133,0 -1.664,-0.5973 -0.72534,-0.5974 -0.72534,-1.9627 0,-1.3653 0.72534,-1.9627 0.68267,-0.5973 1.664,-0.5973 1.10933,0 1.74933,0.64 0.64,0.6827 0.64,1.92 0,1.2373 -0.64,1.8773 -0.64,0.6827 -1.74933,0.6827 z m 7.38134,0 q -1.10934,0 -1.74934,-0.6827 -0.64,-0.64 -0.64,-1.8773 0,-1.2373 0.64,-1.92 0.64,-0.64 1.74934,-0.64 1.152,0 1.74933,0.6827 0.64,0.7253 0.64,1.8773 0,1.152 -0.64,1.8347 -0.59733,0.7253 -1.74933,0.7253 z m -16.38399,-8.704 q 0,5.0773 -2.60267,7.6373 -2.60267,2.6027 -8.02134,2.6027 h -3.072 q -2.98667,0 -4.94934,-1.5787 -1.70667,-1.3653 -2.688,-3.7546 -0.93867,-2.3467 -0.93867,-5.5894 0,-2.6453 0.42667,-5.3333 0.46933,-2.688 1.32267,-4.736 h 3.54133 q -1.45067,3.584 -1.45067,10.0693 0,3.6267 1.45067,5.5894 1.45067,2.0053 4.096,2.0053 h 2.09067 q 3.71201,0 5.41867,-1.7067 1.74934,-1.7066 1.74934,-5.2053 v -32.4267 h 3.62667 v 29.0987 h 4.69333 q 0.21334,0 0.21334,0.1707 v 2.944 q 0,0.2133 -0.21334,0.2133 z m -59.34941,-3.328 h 14.20801 q -0.42667,-3.1147 -1.408,-5.8453 -1.19467,-3.4134 -3.28534,-6.1014 -2.048,-2.688 -5.20534,-4.7787 l 1.36534,-3.2426 q 4.90667,2.56 7.97867,7.5946 3.11467,5.0347 4.224,12.4587 v 3.2427 h -17.87734 z m -26.88001,3.328 q -0.21333,0 -0.21333,-0.2133 v -2.944 q 0,-0.1707 0.21333,-0.1707 h 18.30401 q -1.57867,-1.6213 -2.688,-7.808 -0.64,-3.712 -1.83467,-5.1627 -1.152,-1.4933 -3.54133,-1.4933 -2.94401,0 -6.18667,1.7066 l -1.49334,-2.944 q 1.83467,-1.1946 3.712,-1.6213 1.87734,-0.4693 4.01067,-0.4693 2.56,0 4.35201,0.9386 1.792,0.9387 2.77333,2.7734 1.024,1.792 1.57867,5.2907 0.59733,3.7973 1.36533,5.888 0.81067,2.048 1.83467,2.9866 v 3.2427 z m 9.17329,-26.0267 q -1.10933,0 -1.74933,-0.64 -0.64,-0.6827 -0.64,-1.92 0,-1.2374 0.64,-1.8774 0.64,-0.6826 1.74933,-0.6826 1.152,0 1.74934,0.7253 0.64,0.6827 0.64,1.8347 0,1.152 -0.64,1.8773 -0.59734,0.6827 -1.74934,0.6827 z m -8.74661,22.6987 q 0.21334,0 0.21334,0.1707 v 2.944 q 0,0.2133 -0.21334,0.2133 h -7.72267 q -0.21333,0 -0.21333,-0.2133 v -2.944 q 0,-0.1707 0.21333,-0.1707 z m -13.35467,13.568 q -4.35201,0 -7.68001,-2.176 l 1.70667,-2.8587 q 1.36533,0.7254 2.816,1.1947 1.49334,0.512 3.24267,0.512 2.90134,0 4.52267,-1.5787 1.664,-1.536 1.664,-4.096 v -1.2373 h -4.18133 q -4.56534,0 -7.04001,-2.4747 -2.47467,-2.5173 -2.47467,-7.2533 0,-3.3707 1.408,-5.8027 1.45067,-2.4747 4.09601,-3.7973 2.64533,-1.3654 6.18667,-1.3654 h 5.58934 v 21.7174 q 0,4.352 -2.60267,6.784 -2.56001,2.432 -7.25334,2.432 z m 6.22934,-13.568 v -14.0374 h -1.83467 q -3.79734,0 -5.93067,2.0054 -2.09067,2.0053 -2.09067,5.5893 0,3.328 1.45067,4.9067 1.45066,1.536 4.39467,1.536 z m -34.64537,13.568 q -3.968,0 -6.272,-2.9013 -2.304,-2.9014 -2.304,-8.0214 0,-2.6453 0.42666,-5.3333 0.46934,-2.688 1.32267,-4.736 h 3.54134 q -1.45067,3.584 -1.45067,10.0693 0,3.6267 1.45067,5.5894 1.45066,2.0053 4.096,2.0053 h 2.09067 q 3.712,0 5.41867,-1.7067 1.74933,-1.664 1.74933,-5.0773 v -32.5547 h 3.62667 v 32.256 q 0,5.1627 -2.56,7.7654 -2.56,2.6453 -8.06401,2.6453 z m -50.56003,-10.24 q -0.21334,0 -0.21334,-0.2133 v -2.944 q 0,-0.1707 0.21334,-0.1707 h 5.29067 q -1.57867,-4.096 -1.57867,-7.296 0,-3.7974 1.536,-6.784 1.57867,-1.3227 3.584,-2.0907 2.048,-0.768 4.22401,-0.768 1.32266,0 2.51733,0.2987 1.19467,0.256 2.176,0.8533 2.00534,1.1947 3.072,3.3707 1.10934,2.176 1.10934,4.9067 0,3.4133 -1.19467,5.8026 -1.19467,2.432 -3.456,3.7547 -2.21867,1.28 -5.07734,1.28 z m 7.552,-11.3493 q 0,1.9626 0.34134,3.8826 0.34133,1.92 1.28,4.1387 h 3.02933 q 2.85867,0 4.352,-1.92 1.53601,-1.9627 1.53601,-5.632 0,-2.688 -1.49334,-4.3947 -1.45067,-1.7067 -3.54133,-1.7067 -1.36534,0 -2.68801,0.512 -1.28,0.4694 -2.304,1.2374 -0.34133,0.896 -0.42667,1.8347 -0.0853,0.9386 -0.0853,2.048 z m -22.10132,11.3493 q -0.21333,0 -0.21333,-0.2133 v -2.944 q 0,-0.1707 0.21333,-0.1707 h 5.632 v -17.3654 h 3.79734 v 17.3654 h 5.54667 q 0.21333,0 0.21333,0.1707 v 2.944 q 0,0.2133 -0.21333,0.2133 z m 6.65596,-25.216 q -1.10933,0 -1.74933,-0.64 -0.64001,-0.6827 -0.64001,-1.92 0,-1.2373 0.64001,-1.8773 0.64,-0.6827 1.74933,-0.6827 1.152,0 1.74933,0.7253 0.64001,0.6827 0.64001,1.8347 0,1.152 -0.64001,1.8773 -0.59733,0.6827 -1.74933,0.6827 z m -28.79998,21.888 h 14.20801 q -0.55467,-4.0533 -1.92001,-7.168 -2.47466,-5.8027 -7.97867,-9.5574 l 1.36534,-3.2426 q 4.90667,2.6026 7.97867,7.6373 3.11467,5.0347 4.18134,12.3307 h 4.736 q 0.21333,0 0.21333,0.1707 v 2.944 q 0,0.2133 -0.21333,0.2133 h -22.57068 z m -15.40272,13.568 q -4.352,0 -7.68,-2.176 l 1.70667,-2.8587 q 1.36533,0.7254 2.816,1.1947 1.49333,0.512 3.24267,0.512 2.90133,0 4.52267,-1.5787 1.664,-1.536 1.664,-4.096 v -1.2373 h -4.18134 q -4.56533,0 -7.04,-2.4747 -2.47467,-2.5173 -2.47467,-7.2533 0,-3.3707 1.408,-5.8027 1.45067,-2.4747 4.096,-3.7973 2.64534,-1.3654 6.18667,-1.3654 h 5.58934 v 21.7174 q 0,4.352 -2.60267,6.784 -2.56,2.432 -7.25334,2.432 z m 6.22934,-13.568 v -14.0374 h -1.83467 q -3.79733,0 -5.93067,2.0054 -2.09066,2.0053 -2.09066,5.5893 0,3.328 1.45066,4.9067 1.45067,1.536 4.39467,1.536 z m -34.00539,13.568 q -3.28534,0 -5.46134,-1.92 -3.11467,-2.7307 -3.11467,-8.3627 0,-5.0773 1.74934,-9.4293 h 3.54133 q -1.45067,3.584 -1.45067,9.1733 0,3.456 1.408,5.3334 1.45067,1.8773 4.13867,1.8773 h 2.09067 q 3.71201,0 5.41867,-1.7067 1.74934,-1.664 1.74934,-5.0773 v -20.8214 h 3.62667 v 20.5227 q 0,5.1627 -2.56,7.7654 -2.56001,2.6453 -8.06401,2.6453 z m 2.51735,-29.4827 q -1.10933,0 -1.74933,-0.64 -0.64,-0.6827 -0.64,-1.92 0,-1.2373 0.64,-1.8773 0.64,-0.6827 1.74933,-0.6827 1.15201,0 1.74934,0.7253 0.64,0.6827 0.64,1.8347 0,1.152 -0.64,1.8773 -0.59733,0.6827 -1.74934,0.6827 z m -53.3334,19.2427 q -0.21333,0 -0.21333,-0.2133 v -2.944 q 0,-0.1707 0.21333,-0.1707 h 18.30401 q -1.57866,-1.6213 -2.688,-7.808 -0.64,-3.712 -1.83467,-5.1627 -1.152,-1.4933 -3.54133,-1.4933 -2.944,0 -6.18667,1.7066 l -1.49334,-2.944 q 1.83467,-1.1946 3.712,-1.6213 1.87734,-0.4693 4.01067,-0.4693 2.56001,0 4.35201,0.9386 1.792,0.9387 2.77333,2.7734 1.024,1.792 1.57867,5.2907 0.59733,3.7973 1.36533,5.888 0.81067,2.048 1.83467,2.9866 v 3.2427 z m -11.52005,0 q -1.92,0 -3.54133,-0.64 -1.62134,-0.64 -3.328,-2.3467 -0.93867,1.3227 -2.51734,2.176 -1.536,0.8107 -3.712,0.8107 h -14.72001 q -0.21334,0 -0.21334,-0.2133 v -2.944 q 0,-0.1707 0.21334,-0.1707 h 6.10133 v -14.0374 h 3.62667 v 14.0374 h 4.60801 q 2.048,0 3.2,-1.3653 1.152,-1.3654 1.152,-3.584 v -9.0881 h 3.62667 v 9.3014 q 0,0.3413 0,0.7253 0,0.3414 -0.0427,0.6827 1.06667,1.8347 2.304,2.6027 1.28001,0.7253 3.24267,0.7253 h 2.60267 v -17.3654 h 3.62667 v 17.3654 h 5.71734 q 0.21333,0 0.21333,0.1707 v 2.944 q 0,0.2133 -0.21333,0.2133 z m -27.39202,-3.328 q 0.21334,0 0.21334,0.1707 v 2.944 q 0,0.2133 -0.21334,0.2133 h -9.42934 v -32.4267 h 3.79734 v 29.0987 z m -36.13869,3.328 q -3.66933,0 -5.84533,-2.2187 -2.13334,-2.2186 -2.13334,-6.0586 0,-1.408 0.29867,-3.2427 0.29867,-1.8773 0.768,-3.1574 h 3.41333 q -0.64,3.0721 -0.64,6.1014 0,2.3467 1.10934,3.7973 1.10933,1.4507 2.90133,1.4507 h 15.31735 v -17.3654 h 3.62667 v 20.6934 z m 5.93071,7.8506 q -1.10934,0 -1.74934,-0.6826 -0.64,-0.64 -0.64,-1.8774 0,-1.2373 0.64,-1.92 0.64,-0.64 1.74934,-0.64 1.152,0 1.74933,0.6827 0.64,0.7253 0.64,1.8773 0,1.152 -0.64,1.8347 -0.59733,0.7253 -1.74933,0.7253 z"
       id="text15"
       style="font-size:42.6667px;font-family:'Noto Kufi Arabic';-inkscape-font-specification:'Noto Kufi Arabic';fill:#ae12ff;stroke-width:2"
       aria-label="تسجيل دخول مندون حساب" /><g
       id="g17"
       transform="translate(-6.0000153)"><rect
         style="fill:#ae12ff;fill-opacity:1;stroke:none;stroke-width:2.01756;stroke-dasharray:none;stroke-opacity:1"
         id="rect15"
         width="391.20981"
         height="99.189934"
         x="372.89511"
         y="1437.7649"
         ry="24.825848" /><path
         d="m 667.64146,1500.4532 q -0.21333,0 -0.21333,-0.2133 v -2.944 q 0,-0.1707 0.21333,-0.1707 h 8.19201 v -17.3653 h 3.79734 v 20.6933 z m 5.24797,-24.8746 q -0.98133,0 -1.664,-0.5974 -0.72533,-0.5973 -0.72533,-1.9627 0,-1.3653 0.72533,-1.9626 0.68267,-0.5974 1.664,-0.5974 1.10934,0 1.74934,0.6827 0.64,0.64 0.64,1.8773 0,1.2374 -0.64,1.9201 -0.64,0.64 -1.74934,0.64 z m 7.38134,0 q -1.10933,0 -1.74933,-0.64 -0.64,-0.6827 -0.64,-1.9201 0,-1.2373 0.64,-1.8773 0.64,-0.6827 1.74933,-0.6827 1.152,0 1.74934,0.7254 0.64,0.6826 0.64,1.8346 0,1.152 -0.64,1.8774 -0.59734,0.6827 -1.74934,0.6827 z m -24.14936,24.8746 q -1.92001,0 -3.54134,-0.64 -1.62133,-0.64 -3.328,-2.3466 -0.93867,1.3226 -2.51734,2.176 -1.536,0.8106 -3.712,0.8106 h -14.72001 q -0.21333,0 -0.21333,-0.2133 v -2.944 q 0,-0.1707 0.21333,-0.1707 h 6.10134 v -14.0373 h 3.62667 v 14.0373 h 4.608 q 2.048,0 3.2,-1.3653 1.152,-1.3653 1.152,-3.584 v -9.088 h 3.62667 v 9.3013 q 0,0.3414 0,0.7254 0,0.3413 -0.0427,0.6826 1.06666,1.8347 2.304,2.6027 1.28,0.7253 3.24267,0.7253 h 2.60266 v -17.3653 h 3.62667 v 17.3653 h 5.71734 q 0.21334,0 0.21334,0.1707 v 2.944 q 0,0.2133 -0.21334,0.2133 z m -52.30935,0 q -0.21334,0 -0.21334,-0.2133 v -2.944 q 0,-0.1707 0.21334,-0.1707 h 18.30401 q -1.664,-1.664 -2.688,-7.808 -0.59734,-3.6266 -1.83467,-5.12 -1.19467,-1.536 -3.54134,-1.536 -2.944,0 -6.18667,1.7067 l -1.49333,-2.944 q 1.83467,-1.1947 3.712,-1.6213 1.87734,-0.4694 4.01067,-0.4694 2.60267,0 4.352,0.9387 1.74934,0.9387 2.77334,2.7733 1.024,1.8347 1.57867,5.2907 0.98133,6.6987 3.072,8.7893 h 2.85867 q 0.21333,0 0.21333,0.1707 v 2.944 q 0,0.2133 -0.21333,0.2133 z m 10.62399,9.344 q -1.10933,0 -1.74933,-0.6827 -0.64,-0.64 -0.64,-1.8773 0,-1.2373 0.64,-1.92 0.64,-0.64 1.74933,-0.64 1.152,0 1.74934,0.6827 0.64,0.7253 0.64,1.8773 0,1.152 -0.64,1.8347 -0.59734,0.7253 -1.74934,0.7253 z m -27.3067,-9.344 q -0.21334,0 -0.21334,-0.2133 v -2.944 q 0,-0.1707 0.21334,-0.1707 h 6.912 v -17.3653 h 3.79734 v 17.3653 h 6.4 q 0.21334,0 0.21334,0.1707 v 2.944 q 0,0.2133 -0.21334,0.2133 z m 4.73601,8.704 q -0.98134,0 -1.66401,-0.5973 -0.72533,-0.5973 -0.72533,-1.9627 0,-1.3653 0.72533,-1.9626 0.68267,-0.5974 1.66401,-0.5974 1.10933,0 1.74933,0.64 0.64,0.6827 0.64,1.92 0,1.2374 -0.64,1.8774 -0.64,0.6826 -1.74933,0.6826 z m 7.38134,0 q -1.10934,0 -1.74934,-0.6826 -0.64,-0.64 -0.64,-1.8774 0,-1.2373 0.64,-1.92 0.64,-0.64 1.74934,-0.64 1.152,0 1.74933,0.6827 0.64,0.7253 0.64,1.8773 0,1.152 -0.64,1.8347 -0.59733,0.7253 -1.74933,0.7253 z m -16.384,-8.704 q 0,5.0774 -2.60266,7.6374 -2.60267,2.6027 -8.02134,2.6027 h -3.07201 q -2.98666,0 -4.94933,-1.5787 -1.70667,-1.3653 -2.688,-3.7547 -0.93867,-2.3467 -0.93867,-5.5893 0,-2.6454 0.42666,-5.3334 0.46934,-2.688 1.32267,-4.736 h 3.54134 q -1.45067,3.584 -1.45067,10.0694 0,3.6266 1.45067,5.5893 1.45067,2.0054 4.096,2.0054 h 2.09067 q 3.712,0 5.41867,-1.7067 1.74933,-1.7067 1.74933,-5.2054 v -32.4266 h 3.62667 v 29.0986 h 4.69334 q 0.21333,0 0.21333,0.1707 v 2.944 q 0,0.2133 -0.21333,0.2133 z m -47.61603,-32.4266 h 3.79734 v 32.4266 h -3.79734 z m -17.96267,32.4266 q -0.21334,0 -0.21334,-0.2133 v -2.944 q 0,-0.1707 0.21334,-0.1707 h 5.632 v -29.0986 h 3.79734 v 32.4266 z m -22.14403,-3.328 h 14.20801 q -0.55466,-4.0533 -1.92,-7.168 -2.47467,-5.8026 -7.97867,-9.5573 l 1.36533,-3.2427 q 4.90667,2.6027 7.97868,7.6374 3.11466,5.0346 4.18133,12.3306 h 4.73601 q 0.21333,0 0.21333,0.1707 v 2.944 q 0,0.2133 -0.21333,0.2133 h -22.57069 z m -26.88001,3.328 q -0.21334,0 -0.21334,-0.2133 v -2.944 q 0,-0.1707 0.21334,-0.1707 h 18.30401 q -1.57867,-1.6213 -2.688,-7.808 -0.64,-3.712 -1.83467,-5.1626 -1.152,-1.4934 -3.54134,-1.4934 -2.944,0 -6.18667,1.7067 l -1.49333,-2.944 q 1.83467,-1.1947 3.712,-1.6213 1.87734,-0.4694 4.01067,-0.4694 2.56,0 4.352,0.9387 1.792,0.9387 2.77334,2.7733 1.024,1.792 1.57867,5.2907 0.59733,3.7973 1.36533,5.888 0.81067,2.048 1.83467,2.9867 v 3.2426 z m 9.17329,-26.0267 q -1.10933,0 -1.74933,-0.64 -0.64,-0.6826 -0.64,-1.92 0,-1.2373 0.64,-1.8773 0.64,-0.6827 1.74933,-0.6827 1.15201,0 1.74934,0.7254 0.64,0.6826 0.64,1.8346 0,1.152 -0.64,1.8774 -0.59733,0.6826 -1.74934,0.6826 z m -8.74661,22.6987 q 0.21333,0 0.21333,0.1707 v 2.944 q 0,0.2133 -0.21333,0.2133 h -7.72267 q -0.21334,0 -0.21334,-0.2133 v -2.944 q 0,-0.1707 0.21334,-0.1707 z m -13.35468,13.5681 q -4.352,0 -7.68,-2.176 l 1.70667,-2.8587 q 1.36533,0.7253 2.816,1.1947 1.49333,0.512 3.24267,0.512 2.90133,0 4.52267,-1.5787 1.664,-1.536 1.664,-4.096 v -1.2374 h -4.18134 q -4.56534,0 -7.04,-2.4746 -2.47467,-2.5174 -2.47467,-7.2534 0,-3.3706 1.408,-5.8026 1.45067,-2.4747 4.096,-3.7974 2.64534,-1.3653 6.18667,-1.3653 h 5.58934 v 21.7173 q 0,4.3521 -2.60267,6.7841 -2.56,2.432 -7.25334,2.432 z m 6.22934,-13.5681 v -14.0373 h -1.83467 q -3.79733,0 -5.93067,2.0053 -2.09067,2.0054 -2.09067,5.5894 0,3.328 1.45067,4.9066 1.45067,1.536 4.39467,1.536 z m -34.64537,13.5681 q -3.968,0 -6.272,-2.9014 -2.30401,-2.9013 -2.30401,-8.0213 0,-2.6454 0.42667,-5.3334 0.46933,-2.688 1.32267,-4.736 h 3.54133 q -1.45066,3.584 -1.45066,10.0694 0,3.6266 1.45066,5.5893 1.45067,2.0054 4.09601,2.0054 h 2.09067 q 3.712,0 5.41867,-1.7067 1.74933,-1.664 1.74933,-5.0774 v -32.5546 h 3.62667 v 32.256 q 0,5.1627 -2.56,7.7653 -2.56,2.6454 -8.06401,2.6454 z"
         id="text17"
         style="font-size:42.6667px;font-family:'Noto Kufi Arabic';-inkscape-font-specification:'Noto Kufi Arabic';fill:#ffffff;stroke-width:2"
         aria-label="تسجيل الدخول" /><path
         d="m 729.07847,1471.0555 v 33.6088 h -24.15675 v -33.6088 h 24.15675 m 0,-4.2011 h -24.15675 c -2.21436,0 -4.02612,1.8905 -4.02612,4.2011 v 37.8099 h 32.209 v -37.8099 c 0,-2.3106 -1.81176,-4.2011 -4.02613,-4.2011 z m -5.03265,17.8547 c -1.67085,0 -3.0196,1.4074 -3.0196,3.1508 0,1.7435 1.34875,3.1509 3.0196,3.1509 1.67084,0 3.01959,-1.4074 3.01959,-3.1509 0,-1.7434 -1.34875,-3.1508 -3.01959,-3.1508 z"
         id="path1-9"
         style="fill:#ffffff;fill-opacity:1;stroke-width:2.05634" /></g></g><path
     d="m -2543.168,-1970.0605 v 6376.121 h 6223.336 v -6376.121 z M 0,0 H 1125 V 2436 H 0 Z"
     style="display:inline;fill:#525252;stroke-width:19.0259"
     id="path2"
     sodipodi:insensitive="true" /></svg>
